<svg xmlns="http://www.w3.org/2000/svg" xmlns:xlink="http://www.w3.org/1999/xlink" viewBox="0 0 606.29 467.78"><defs><style>.cls-1,.cls-10,.cls-11,.cls-13,.cls-5,.cls-8{fill:none;}.cls-1,.cls-10,.cls-12,.cls-13,.cls-14,.cls-5,.cls-8,.cls-9{stroke:#212121;}.cls-1,.cls-10,.cls-11,.cls-12,.cls-13,.cls-14,.cls-5,.cls-8,.cls-9{stroke-linecap:square;}.cls-1,.cls-10,.cls-11,.cls-13,.cls-14,.cls-3,.cls-5,.cls-8,.cls-9{stroke-miterlimit:10;}.cls-1,.cls-10,.cls-11{stroke-width:3.59px;}.cls-12,.cls-2,.cls-3,.cls-9{fill:#fff;}.cls-3{stroke:#563b95;stroke-width:1.82px;}.cls-14,.cls-4{fill:#212121;}.cls-5{stroke-width:3.12px;}.cls-6{clip-path:url(#clip-path);}.cls-7{fill:#101920;}.cls-12,.cls-14,.cls-8,.cls-9{stroke-width:3.55px;}.cls-10,.cls-11{stroke-dasharray:0 8.97;}.cls-11{stroke:#fff;}.cls-12{stroke-linejoin:bevel;}.cls-13{stroke-width:3.09px;}</style><clipPath id="clip-path"><rect class="cls-1" x="103.32" y="199.86" width="274.75" height="36.18"/></clipPath></defs><title>mission</title><g id="Layer_2" data-name="Layer 2"><g id="Layer_3" data-name="Layer 3"><circle class="cls-2" cx="295.59" cy="233.89" r="233.89"/><rect class="cls-3" x="171.18" y="268.94" width="123.92" height="97.9"/><rect class="cls-1" x="171.18" y="268.94" width="123.92" height="97.9"/><rect class="cls-1" x="192.99" y="280.38" width="88.23" height="17.83"/><rect class="cls-1" x="192.99" y="313.32" width="88.23" height="17.83"/><rect class="cls-4" x="207.66" y="340.97" width="48.97" height="15.6" rx="3.2"/><path class="cls-4" d="M186.49,291.17a4.64,4.64,0,0,0-3.33-2.61,2.79,2.79,0,0,0-.67-5.17,2.81,2.81,0,0,0-3.47,2.73,2.76,2.76,0,0,0,1.46,2.44,5,5,0,0,0-3.33,2.61c-.44,1,0,2.27.93,2.27h7.48C186.45,293.44,187,292.15,186.49,291.17Z"/><path class="cls-4" d="M184.81,321.48h0v-1.32a3,3,0,0,0-6,0v1.32a.83.83,0,0,0-.49.75v4.25a.82.82,0,0,0,.82.82h5.31a.82.82,0,0,0,.82-.82v-4.25A.83.83,0,0,0,184.81,321.48Zm-1.26-.07h-3.44v-1.25a1.72,1.72,0,0,1,3.44,0Z"/><path class="cls-4" d="M222.59,320.11a.59.59,0,0,1,.3.07l2.62.87-.12-2.61a1.09,1.09,0,0,1,2.16,0l-.12,2.63,2.64-.89a.76.76,0,0,1,.3-.07,1.19,1.19,0,0,1,1.06,1.25.85.85,0,0,1-.7.89l-2.54.63,1.71,2.45a1,1,0,0,1,.17.56,1.2,1.2,0,0,1-1.23,1.11.85.85,0,0,1-.77-.4l-1.6-2.42-1.62,2.44a.74.74,0,0,1-.71.38c-.47,0-1.27-.4-1.27-1.06a1,1,0,0,1,.26-.63l1.65-2.31-2.62-.75a.93.93,0,0,1-.68-1A1.16,1.16,0,0,1,222.59,320.11Z"/><path class="cls-4" d="M211.53,320.11a.59.59,0,0,1,.3.07l2.62.87-.12-2.61a1.09,1.09,0,0,1,2.16,0l-.12,2.63,2.64-.89a.76.76,0,0,1,.3-.07,1.19,1.19,0,0,1,1.06,1.25.85.85,0,0,1-.7.89l-2.54.63,1.71,2.45a1,1,0,0,1,.17.56,1.2,1.2,0,0,1-1.22,1.11.86.86,0,0,1-.78-.4l-1.6-2.42-1.62,2.44a.74.74,0,0,1-.71.38c-.47,0-1.27-.4-1.27-1.06a1,1,0,0,1,.26-.63l1.65-2.31-2.61-.75a.92.92,0,0,1-.69-1A1.16,1.16,0,0,1,211.53,320.11Z"/><path class="cls-4" d="M200.47,320.11a.59.59,0,0,1,.3.07l2.62.87-.12-2.61a1.09,1.09,0,0,1,2.16,0l-.12,2.63,2.64-.89a.76.76,0,0,1,.3-.07,1.19,1.19,0,0,1,1.06,1.25.85.85,0,0,1-.7.89l-2.54.63,1.71,2.45a1,1,0,0,1,.17.56,1.2,1.2,0,0,1-1.23,1.11.85.85,0,0,1-.77-.4l-1.6-2.42-1.62,2.44a.74.74,0,0,1-.71.38c-.47,0-1.27-.4-1.27-1.06a1,1,0,0,1,.26-.63l1.65-2.31-2.61-.75a.93.93,0,0,1-.69-1A1.16,1.16,0,0,1,200.47,320.11Z"/><path class="cls-4" d="M256.36,320.11a.62.62,0,0,1,.31.07l2.61.87-.12-2.61a1.09,1.09,0,0,1,2.17,0l-.12,2.63,2.63-.89a.76.76,0,0,1,.31-.07,1.2,1.2,0,0,1,1.06,1.25.86.86,0,0,1-.71.89l-2.54.63,1.72,2.45a1,1,0,0,1,.16.56,1.19,1.19,0,0,1-1.22,1.11.87.87,0,0,1-.78-.4l-1.6-2.42-1.62,2.44a.73.73,0,0,1-.71.38c-.46,0-1.26-.4-1.26-1.06a1,1,0,0,1,.25-.63l1.65-2.31-2.61-.75a.93.93,0,0,1-.68-1A1.16,1.16,0,0,1,256.36,320.11Z"/><path class="cls-4" d="M245.3,320.11a.62.62,0,0,1,.31.07l2.61.87-.12-2.61a1.09,1.09,0,0,1,2.17,0l-.12,2.63,2.63-.89a.76.76,0,0,1,.31-.07,1.2,1.2,0,0,1,1.06,1.25.85.85,0,0,1-.71.89l-2.54.63,1.72,2.45a1,1,0,0,1,.16.56,1.19,1.19,0,0,1-1.22,1.11.88.88,0,0,1-.78-.4l-1.6-2.42-1.62,2.44a.73.73,0,0,1-.7.38c-.47,0-1.27-.4-1.27-1.06a1,1,0,0,1,.25-.63l1.65-2.31-2.61-.75a.93.93,0,0,1-.68-1A1.16,1.16,0,0,1,245.3,320.11Z"/><path class="cls-4" d="M234.24,320.11a.6.6,0,0,1,.31.07l2.61.87-.12-2.61a1.09,1.09,0,0,1,2.17,0l-.12,2.63,2.63-.89a.8.8,0,0,1,.31-.07,1.2,1.2,0,0,1,1.06,1.25.85.85,0,0,1-.71.89l-2.54.63,1.72,2.45a1,1,0,0,1,.16.56A1.19,1.19,0,0,1,240.5,327a.88.88,0,0,1-.78-.4l-1.6-2.42-1.62,2.44a.73.73,0,0,1-.7.38c-.47,0-1.27-.4-1.27-1.06a1,1,0,0,1,.25-.63l1.65-2.31-2.61-.75a.93.93,0,0,1-.68-1A1.16,1.16,0,0,1,234.24,320.11Z"/><rect class="cls-4" x="199.36" y="287.17" width="42.18" height="4.25" rx="2.12"/><rect class="cls-1" x="103.32" y="199.86" width="274.75" height="201.55"/><line class="cls-5" x1="103.32" y1="236.04" x2="378.07" y2="236.04"/><g class="cls-6"><path class="cls-7" d="M76.57,142.23A1.59,1.59,0,1,1,75,140.64a1.59,1.59,0,0,1,1.59,1.59"/><path class="cls-7" d="M76.57,150.21A1.59,1.59,0,1,1,75,148.62a1.59,1.59,0,0,1,1.59,1.59"/><path class="cls-7" d="M76.57,157.28A1.59,1.59,0,1,1,75,155.69a1.59,1.59,0,0,1,1.59,1.59"/><path class="cls-7" d="M76.57,164.35A1.59,1.59,0,1,1,75,162.76a1.59,1.59,0,0,1,1.59,1.59"/><path class="cls-7" d="M76.57,171.42A1.59,1.59,0,1,1,75,169.83a1.59,1.59,0,0,1,1.59,1.59"/><path class="cls-7" d="M76.57,178.49A1.59,1.59,0,1,1,75,176.9a1.59,1.59,0,0,1,1.59,1.59"/><path class="cls-7" d="M76.57,185.56A1.59,1.59,0,1,1,75,184a1.59,1.59,0,0,1,1.59,1.59"/><path class="cls-7" d="M76.57,192.63A1.59,1.59,0,1,1,75,191.05a1.59,1.59,0,0,1,1.59,1.58"/><path class="cls-7" d="M76.57,199.71A1.59,1.59,0,1,1,75,198.12a1.59,1.59,0,0,1,1.59,1.59"/><path class="cls-7" d="M76.57,206.78A1.59,1.59,0,1,1,75,205.19a1.59,1.59,0,0,1,1.59,1.59"/><path class="cls-7" d="M76.57,213.85A1.59,1.59,0,1,1,75,212.26a1.59,1.59,0,0,1,1.59,1.59"/><path class="cls-7" d="M76.57,220.92A1.59,1.59,0,1,1,75,219.33a1.59,1.59,0,0,1,1.59,1.59"/><path class="cls-7" d="M76.57,228A1.59,1.59,0,1,1,75,226.4,1.59,1.59,0,0,1,76.57,228"/><path class="cls-7" d="M83.62,142.23A1.59,1.59,0,1,1,82,140.64a1.59,1.59,0,0,1,1.59,1.59"/><path class="cls-7" d="M83.62,150.21A1.59,1.59,0,1,1,82,148.62a1.59,1.59,0,0,1,1.59,1.59"/><path class="cls-7" d="M83.62,157.28A1.59,1.59,0,1,1,82,155.69a1.6,1.6,0,0,1,1.59,1.59"/><path class="cls-7" d="M83.62,164.35A1.59,1.59,0,1,1,82,162.76a1.59,1.59,0,0,1,1.59,1.59"/><path class="cls-7" d="M83.62,171.42A1.59,1.59,0,1,1,82,169.83a1.59,1.59,0,0,1,1.59,1.59"/><path class="cls-7" d="M83.62,178.49A1.59,1.59,0,1,1,82,176.9a1.59,1.59,0,0,1,1.59,1.59"/><path class="cls-7" d="M83.62,185.56A1.59,1.59,0,1,1,82,184a1.59,1.59,0,0,1,1.59,1.59"/><path class="cls-7" d="M83.62,192.63A1.59,1.59,0,1,1,82,191.05a1.59,1.59,0,0,1,1.59,1.58"/><path class="cls-7" d="M83.62,199.71A1.59,1.59,0,1,1,82,198.12a1.6,1.6,0,0,1,1.59,1.59"/><path class="cls-7" d="M83.62,206.78A1.59,1.59,0,1,1,82,205.19a1.6,1.6,0,0,1,1.59,1.59"/><path class="cls-7" d="M83.62,213.85A1.59,1.59,0,1,1,82,212.26a1.59,1.59,0,0,1,1.59,1.59"/><path class="cls-7" d="M83.62,220.92A1.59,1.59,0,1,1,82,219.33a1.59,1.59,0,0,1,1.59,1.59"/><path class="cls-7" d="M83.62,228A1.59,1.59,0,1,1,82,226.4,1.59,1.59,0,0,1,83.62,228"/><path class="cls-7" d="M90.66,142.23a1.59,1.59,0,1,1-1.59-1.59,1.59,1.59,0,0,1,1.59,1.59"/><path class="cls-7" d="M90.66,150.21a1.59,1.59,0,1,1-1.59-1.59,1.59,1.59,0,0,1,1.59,1.59"/><path class="cls-7" d="M90.66,157.28a1.59,1.59,0,1,1-1.59-1.59,1.59,1.59,0,0,1,1.59,1.59"/><path class="cls-7" d="M90.66,164.35a1.59,1.59,0,1,1-1.59-1.59,1.59,1.59,0,0,1,1.59,1.59"/><path class="cls-7" d="M90.66,171.42a1.59,1.59,0,1,1-1.59-1.59,1.59,1.59,0,0,1,1.59,1.59"/><path class="cls-7" d="M90.66,178.49a1.59,1.59,0,1,1-1.59-1.59,1.59,1.59,0,0,1,1.59,1.59"/><path class="cls-7" d="M90.66,185.56A1.59,1.59,0,1,1,89.07,184a1.59,1.59,0,0,1,1.59,1.59"/><path class="cls-7" d="M90.66,192.63a1.59,1.59,0,1,1-1.59-1.58,1.59,1.59,0,0,1,1.59,1.58"/><path class="cls-7" d="M90.66,199.71a1.59,1.59,0,1,1-1.59-1.59,1.59,1.59,0,0,1,1.59,1.59"/><path class="cls-7" d="M90.66,206.78a1.59,1.59,0,1,1-1.59-1.59,1.59,1.59,0,0,1,1.59,1.59"/><path class="cls-7" d="M90.66,213.85a1.59,1.59,0,1,1-1.59-1.59,1.59,1.59,0,0,1,1.59,1.59"/><path class="cls-7" d="M90.66,220.92a1.59,1.59,0,1,1-1.59-1.59,1.59,1.59,0,0,1,1.59,1.59"/><path class="cls-7" d="M90.66,228a1.59,1.59,0,1,1-1.59-1.59A1.59,1.59,0,0,1,90.66,228"/><path class="cls-7" d="M97.71,142.23a1.59,1.59,0,1,1-1.59-1.59,1.59,1.59,0,0,1,1.59,1.59"/><path class="cls-7" d="M97.71,150.21a1.59,1.59,0,1,1-1.59-1.59,1.59,1.59,0,0,1,1.59,1.59"/><path class="cls-7" d="M97.71,157.28a1.59,1.59,0,1,1-1.59-1.59,1.6,1.6,0,0,1,1.59,1.59"/><path class="cls-7" d="M97.71,164.35a1.59,1.59,0,1,1-1.59-1.59,1.59,1.59,0,0,1,1.59,1.59"/><path class="cls-7" d="M97.71,171.42a1.59,1.59,0,1,1-1.59-1.59,1.59,1.59,0,0,1,1.59,1.59"/><path class="cls-7" d="M97.71,178.49a1.59,1.59,0,1,1-1.59-1.59,1.59,1.59,0,0,1,1.59,1.59"/><path class="cls-7" d="M97.71,185.56A1.59,1.59,0,1,1,96.12,184a1.59,1.59,0,0,1,1.59,1.59"/><path class="cls-7" d="M97.71,192.63a1.59,1.59,0,1,1-1.59-1.58,1.59,1.59,0,0,1,1.59,1.58"/><path class="cls-7" d="M97.71,199.71a1.59,1.59,0,1,1-1.59-1.59,1.6,1.6,0,0,1,1.59,1.59"/><path class="cls-7" d="M97.71,206.78a1.59,1.59,0,1,1-1.59-1.59,1.6,1.6,0,0,1,1.59,1.59"/><path class="cls-7" d="M97.71,213.85a1.59,1.59,0,1,1-1.59-1.59,1.59,1.59,0,0,1,1.59,1.59"/><path class="cls-7" d="M97.71,220.92a1.59,1.59,0,1,1-1.59-1.59,1.59,1.59,0,0,1,1.59,1.59"/><path class="cls-7" d="M97.71,228a1.59,1.59,0,1,1-1.59-1.59A1.59,1.59,0,0,1,97.71,228"/><path class="cls-7" d="M104.75,142.23a1.59,1.59,0,1,1-1.59-1.59,1.59,1.59,0,0,1,1.59,1.59"/><path class="cls-7" d="M104.75,150.21a1.59,1.59,0,1,1-1.59-1.59,1.59,1.59,0,0,1,1.59,1.59"/><path class="cls-7" d="M104.75,157.28a1.59,1.59,0,1,1-1.59-1.59,1.59,1.59,0,0,1,1.59,1.59"/><path class="cls-7" d="M104.75,164.35a1.59,1.59,0,1,1-1.59-1.59,1.59,1.59,0,0,1,1.59,1.59"/><path class="cls-7" d="M104.75,171.42a1.59,1.59,0,1,1-1.59-1.59,1.59,1.59,0,0,1,1.59,1.59"/><path class="cls-7" d="M104.75,178.49a1.59,1.59,0,1,1-1.59-1.59,1.59,1.59,0,0,1,1.59,1.59"/><path class="cls-7" d="M104.75,185.56a1.59,1.59,0,1,1-1.59-1.59,1.59,1.59,0,0,1,1.59,1.59"/><path class="cls-7" d="M104.75,192.63a1.59,1.59,0,1,1-1.59-1.58,1.59,1.59,0,0,1,1.59,1.58"/><path class="cls-7" d="M104.75,199.71a1.59,1.59,0,1,1-1.59-1.59,1.59,1.59,0,0,1,1.59,1.59"/><path class="cls-7" d="M104.75,206.78a1.59,1.59,0,1,1-1.59-1.59,1.59,1.59,0,0,1,1.59,1.59"/><path class="cls-7" d="M104.75,213.85a1.59,1.59,0,1,1-1.59-1.59,1.59,1.59,0,0,1,1.59,1.59"/><path class="cls-7" d="M104.75,220.92a1.59,1.59,0,1,1-1.59-1.59,1.59,1.59,0,0,1,1.59,1.59"/><path class="cls-7" d="M104.75,228a1.59,1.59,0,1,1-1.59-1.59,1.59,1.59,0,0,1,1.59,1.59"/><path class="cls-7" d="M111.8,142.23a1.59,1.59,0,1,1-1.59-1.59,1.59,1.59,0,0,1,1.59,1.59"/><path class="cls-7" d="M111.8,150.21a1.59,1.59,0,1,1-1.59-1.59,1.59,1.59,0,0,1,1.59,1.59"/><path class="cls-7" d="M111.8,157.28a1.59,1.59,0,1,1-1.59-1.59,1.6,1.6,0,0,1,1.59,1.59"/><path class="cls-7" d="M111.8,164.35a1.59,1.59,0,1,1-1.59-1.59,1.59,1.59,0,0,1,1.59,1.59"/><path class="cls-7" d="M111.8,171.42a1.59,1.59,0,1,1-1.59-1.59,1.59,1.59,0,0,1,1.59,1.59"/><path class="cls-7" d="M111.8,178.49a1.59,1.59,0,1,1-1.59-1.59,1.59,1.59,0,0,1,1.59,1.59"/><path class="cls-7" d="M111.8,185.56a1.59,1.59,0,1,1-1.59-1.59,1.59,1.59,0,0,1,1.59,1.59"/><path class="cls-7" d="M111.8,192.63a1.59,1.59,0,1,1-1.59-1.58,1.59,1.59,0,0,1,1.59,1.58"/><path class="cls-7" d="M111.8,199.71a1.59,1.59,0,1,1-1.59-1.59,1.6,1.6,0,0,1,1.59,1.59"/><path class="cls-7" d="M111.8,206.78a1.59,1.59,0,1,1-1.59-1.59,1.6,1.6,0,0,1,1.59,1.59"/><path class="cls-7" d="M111.8,213.85a1.59,1.59,0,1,1-1.59-1.59,1.59,1.59,0,0,1,1.59,1.59"/><path class="cls-7" d="M111.8,220.92a1.59,1.59,0,1,1-1.59-1.59,1.59,1.59,0,0,1,1.59,1.59"/><path class="cls-7" d="M111.8,228a1.59,1.59,0,1,1-1.59-1.59A1.59,1.59,0,0,1,111.8,228"/><path class="cls-7" d="M118.84,142.23a1.59,1.59,0,1,1-1.59-1.59,1.59,1.59,0,0,1,1.59,1.59"/><path class="cls-7" d="M118.84,150.21a1.59,1.59,0,1,1-1.59-1.59,1.59,1.59,0,0,1,1.59,1.59"/><path class="cls-7" d="M118.84,157.28a1.59,1.59,0,1,1-1.59-1.59,1.59,1.59,0,0,1,1.59,1.59"/><path class="cls-7" d="M118.84,164.35a1.59,1.59,0,1,1-1.59-1.59,1.59,1.59,0,0,1,1.59,1.59"/><path class="cls-7" d="M118.84,171.42a1.59,1.59,0,1,1-1.59-1.59,1.59,1.59,0,0,1,1.59,1.59"/><path class="cls-7" d="M118.84,178.49a1.59,1.59,0,1,1-1.59-1.59,1.59,1.59,0,0,1,1.59,1.59"/><path class="cls-7" d="M118.84,185.56a1.59,1.59,0,1,1-1.59-1.59,1.59,1.59,0,0,1,1.59,1.59"/><path class="cls-7" d="M118.84,192.63a1.59,1.59,0,1,1-1.59-1.58,1.59,1.59,0,0,1,1.59,1.58"/><path class="cls-7" d="M118.84,199.71a1.59,1.59,0,1,1-1.59-1.59,1.59,1.59,0,0,1,1.59,1.59"/><path class="cls-7" d="M118.84,206.78a1.59,1.59,0,1,1-1.59-1.59,1.59,1.59,0,0,1,1.59,1.59"/><path class="cls-7" d="M118.84,213.85a1.59,1.59,0,1,1-1.59-1.59,1.59,1.59,0,0,1,1.59,1.59"/><path class="cls-7" d="M118.84,220.92a1.59,1.59,0,1,1-1.59-1.59,1.59,1.59,0,0,1,1.59,1.59"/><path class="cls-7" d="M118.84,228a1.59,1.59,0,1,1-1.59-1.59,1.59,1.59,0,0,1,1.59,1.59"/><path class="cls-7" d="M125.89,142.23a1.59,1.59,0,1,1-1.59-1.59,1.59,1.59,0,0,1,1.59,1.59"/><path class="cls-7" d="M125.89,150.21a1.59,1.59,0,1,1-1.59-1.59,1.59,1.59,0,0,1,1.59,1.59"/><path class="cls-7" d="M125.89,157.28a1.59,1.59,0,1,1-1.59-1.59,1.6,1.6,0,0,1,1.59,1.59"/><path class="cls-7" d="M125.89,164.35a1.59,1.59,0,1,1-1.59-1.59,1.59,1.59,0,0,1,1.59,1.59"/><path class="cls-7" d="M125.89,171.42a1.59,1.59,0,1,1-1.59-1.59,1.59,1.59,0,0,1,1.59,1.59"/><path class="cls-7" d="M125.89,178.49a1.59,1.59,0,1,1-1.59-1.59,1.59,1.59,0,0,1,1.59,1.59"/><path class="cls-7" d="M125.89,185.56A1.59,1.59,0,1,1,124.3,184a1.59,1.59,0,0,1,1.59,1.59"/><path class="cls-7" d="M125.89,192.63a1.59,1.59,0,1,1-1.59-1.58,1.59,1.59,0,0,1,1.59,1.58"/><path class="cls-7" d="M125.89,199.71a1.59,1.59,0,1,1-1.59-1.59,1.6,1.6,0,0,1,1.59,1.59"/><path class="cls-7" d="M125.89,206.78a1.59,1.59,0,1,1-1.59-1.59,1.6,1.6,0,0,1,1.59,1.59"/><path class="cls-7" d="M125.89,213.85a1.59,1.59,0,1,1-1.59-1.59,1.59,1.59,0,0,1,1.59,1.59"/><path class="cls-7" d="M125.89,220.92a1.59,1.59,0,1,1-1.59-1.59,1.59,1.59,0,0,1,1.59,1.59"/><path class="cls-7" d="M125.89,228a1.59,1.59,0,1,1-1.59-1.59,1.59,1.59,0,0,1,1.59,1.59"/><path class="cls-7" d="M132.93,142.23a1.59,1.59,0,1,1-1.59-1.59,1.59,1.59,0,0,1,1.59,1.59"/><path class="cls-7" d="M132.93,150.21a1.59,1.59,0,1,1-1.59-1.59,1.59,1.59,0,0,1,1.59,1.59"/><path class="cls-7" d="M132.93,157.28a1.59,1.59,0,1,1-1.59-1.59,1.59,1.59,0,0,1,1.59,1.59"/><path class="cls-7" d="M132.93,164.35a1.59,1.59,0,1,1-1.59-1.59,1.59,1.59,0,0,1,1.59,1.59"/><path class="cls-7" d="M132.93,171.42a1.59,1.59,0,1,1-1.59-1.59,1.59,1.59,0,0,1,1.59,1.59"/><path class="cls-7" d="M132.93,178.49a1.59,1.59,0,1,1-1.59-1.59,1.59,1.59,0,0,1,1.59,1.59"/><path class="cls-7" d="M132.93,185.56a1.59,1.59,0,1,1-1.59-1.59,1.59,1.59,0,0,1,1.59,1.59"/><path class="cls-7" d="M132.93,192.63a1.59,1.59,0,1,1-1.59-1.58,1.59,1.59,0,0,1,1.59,1.58"/><path class="cls-7" d="M132.93,199.71a1.59,1.59,0,1,1-1.59-1.59,1.59,1.59,0,0,1,1.59,1.59"/><path class="cls-7" d="M132.93,206.78a1.59,1.59,0,1,1-1.59-1.59,1.59,1.59,0,0,1,1.59,1.59"/><path class="cls-7" d="M132.93,213.85a1.59,1.59,0,1,1-1.59-1.59,1.59,1.59,0,0,1,1.59,1.59"/><path class="cls-7" d="M132.93,220.92a1.59,1.59,0,1,1-1.59-1.59,1.59,1.59,0,0,1,1.59,1.59"/><path class="cls-7" d="M132.93,228a1.59,1.59,0,1,1-1.59-1.59,1.59,1.59,0,0,1,1.59,1.59"/><path class="cls-7" d="M140,142.23a1.59,1.59,0,1,1-1.59-1.59,1.59,1.59,0,0,1,1.59,1.59"/><path class="cls-7" d="M140,150.21a1.59,1.59,0,1,1-1.59-1.59,1.59,1.59,0,0,1,1.59,1.59"/><path class="cls-7" d="M140,157.28a1.59,1.59,0,1,1-1.59-1.59,1.6,1.6,0,0,1,1.59,1.59"/><path class="cls-7" d="M140,164.35a1.59,1.59,0,1,1-1.59-1.59,1.59,1.59,0,0,1,1.59,1.59"/><path class="cls-7" d="M140,171.42a1.59,1.59,0,1,1-1.59-1.59,1.59,1.59,0,0,1,1.59,1.59"/><path class="cls-7" d="M140,178.49a1.59,1.59,0,1,1-1.59-1.59,1.59,1.59,0,0,1,1.59,1.59"/><path class="cls-7" d="M140,185.56a1.59,1.59,0,1,1-1.59-1.59,1.59,1.59,0,0,1,1.59,1.59"/><path class="cls-7" d="M140,192.63a1.59,1.59,0,1,1-1.59-1.58,1.59,1.59,0,0,1,1.59,1.58"/><path class="cls-7" d="M140,199.71a1.59,1.59,0,1,1-1.59-1.59,1.6,1.6,0,0,1,1.59,1.59"/><path class="cls-7" d="M140,206.78a1.59,1.59,0,1,1-1.59-1.59,1.6,1.6,0,0,1,1.59,1.59"/><path class="cls-7" d="M140,213.85a1.59,1.59,0,1,1-1.59-1.59,1.59,1.59,0,0,1,1.59,1.59"/><path class="cls-7" d="M140,220.92a1.59,1.59,0,1,1-1.59-1.59,1.59,1.59,0,0,1,1.59,1.59"/><path class="cls-7" d="M140,228a1.59,1.59,0,1,1-1.59-1.59A1.59,1.59,0,0,1,140,228"/><path class="cls-7" d="M147,142.23a1.59,1.59,0,1,1-1.59-1.59,1.59,1.59,0,0,1,1.59,1.59"/><path class="cls-7" d="M147,150.21a1.59,1.59,0,1,1-1.59-1.59,1.59,1.59,0,0,1,1.59,1.59"/><path class="cls-7" d="M147,157.28a1.59,1.59,0,1,1-1.59-1.59,1.59,1.59,0,0,1,1.59,1.59"/><path class="cls-7" d="M147,164.35a1.59,1.59,0,1,1-1.59-1.59,1.59,1.59,0,0,1,1.59,1.59"/><path class="cls-7" d="M147,171.42a1.59,1.59,0,1,1-1.59-1.59,1.59,1.59,0,0,1,1.59,1.59"/><path class="cls-7" d="M147,178.49a1.59,1.59,0,1,1-1.59-1.59,1.59,1.59,0,0,1,1.59,1.59"/><path class="cls-7" d="M147,185.56a1.59,1.59,0,1,1-1.59-1.59,1.59,1.59,0,0,1,1.59,1.59"/><path class="cls-7" d="M147,192.63a1.59,1.59,0,1,1-1.59-1.58,1.59,1.59,0,0,1,1.59,1.58"/><path class="cls-7" d="M147,199.71a1.59,1.59,0,1,1-1.59-1.59,1.59,1.59,0,0,1,1.59,1.59"/><path class="cls-7" d="M147,206.78a1.59,1.59,0,1,1-1.59-1.59,1.59,1.59,0,0,1,1.59,1.59"/><path class="cls-7" d="M147,213.85a1.59,1.59,0,1,1-1.59-1.59,1.59,1.59,0,0,1,1.59,1.59"/><path class="cls-7" d="M147,220.92a1.59,1.59,0,1,1-1.59-1.59,1.59,1.59,0,0,1,1.59,1.59"/><path class="cls-7" d="M147,228a1.59,1.59,0,1,1-1.59-1.59A1.59,1.59,0,0,1,147,228"/><path class="cls-7" d="M154.07,142.23a1.59,1.59,0,1,1-1.59-1.59,1.59,1.59,0,0,1,1.59,1.59"/><path class="cls-7" d="M154.07,150.21a1.59,1.59,0,1,1-1.59-1.59,1.59,1.59,0,0,1,1.59,1.59"/><path class="cls-7" d="M154.07,157.28a1.59,1.59,0,1,1-1.59-1.59,1.6,1.6,0,0,1,1.59,1.59"/><path class="cls-7" d="M154.07,164.35a1.59,1.59,0,1,1-1.59-1.59,1.59,1.59,0,0,1,1.59,1.59"/><path class="cls-7" d="M154.07,171.42a1.59,1.59,0,1,1-1.59-1.59,1.59,1.59,0,0,1,1.59,1.59"/><path class="cls-7" d="M154.07,178.49a1.59,1.59,0,1,1-1.59-1.59,1.59,1.59,0,0,1,1.59,1.59"/><path class="cls-7" d="M154.07,185.56a1.59,1.59,0,1,1-1.59-1.59,1.59,1.59,0,0,1,1.59,1.59"/><path class="cls-7" d="M154.07,192.63a1.59,1.59,0,1,1-1.59-1.58,1.59,1.59,0,0,1,1.59,1.58"/><path class="cls-7" d="M154.07,199.71a1.59,1.59,0,1,1-1.59-1.59,1.6,1.6,0,0,1,1.59,1.59"/><path class="cls-7" d="M154.07,206.78a1.59,1.59,0,1,1-1.59-1.59,1.6,1.6,0,0,1,1.59,1.59"/><path class="cls-7" d="M154.07,213.85a1.59,1.59,0,1,1-1.59-1.59,1.59,1.59,0,0,1,1.59,1.59"/><path class="cls-7" d="M154.07,220.92a1.59,1.59,0,1,1-1.59-1.59,1.59,1.59,0,0,1,1.59,1.59"/><path class="cls-7" d="M154.07,228a1.59,1.59,0,1,1-1.59-1.59,1.59,1.59,0,0,1,1.59,1.59"/><path class="cls-7" d="M161.11,142.23a1.59,1.59,0,1,1-1.59-1.59,1.59,1.59,0,0,1,1.59,1.59"/><path class="cls-7" d="M161.11,150.21a1.59,1.59,0,1,1-1.59-1.59,1.59,1.59,0,0,1,1.59,1.59"/><path class="cls-7" d="M161.11,157.28a1.59,1.59,0,1,1-1.59-1.59,1.59,1.59,0,0,1,1.59,1.59"/><path class="cls-7" d="M161.11,164.35a1.59,1.59,0,1,1-1.59-1.59,1.59,1.59,0,0,1,1.59,1.59"/><path class="cls-7" d="M161.11,171.42a1.59,1.59,0,1,1-1.59-1.59,1.59,1.59,0,0,1,1.59,1.59"/><path class="cls-7" d="M161.11,178.49a1.59,1.59,0,1,1-1.59-1.59,1.59,1.59,0,0,1,1.59,1.59"/><path class="cls-7" d="M161.11,185.56a1.59,1.59,0,1,1-1.59-1.59,1.59,1.59,0,0,1,1.59,1.59"/><path class="cls-7" d="M161.11,192.63a1.59,1.59,0,1,1-1.59-1.58,1.59,1.59,0,0,1,1.59,1.58"/><path class="cls-7" d="M161.11,199.71a1.59,1.59,0,1,1-1.59-1.59,1.59,1.59,0,0,1,1.59,1.59"/><path class="cls-7" d="M161.11,206.78a1.59,1.59,0,1,1-1.59-1.59,1.59,1.59,0,0,1,1.59,1.59"/><path class="cls-7" d="M161.11,213.85a1.59,1.59,0,1,1-1.59-1.59,1.59,1.59,0,0,1,1.59,1.59"/><path class="cls-7" d="M161.11,220.92a1.59,1.59,0,1,1-1.59-1.59,1.59,1.59,0,0,1,1.59,1.59"/><path class="cls-7" d="M161.11,228a1.59,1.59,0,1,1-1.59-1.59,1.59,1.59,0,0,1,1.59,1.59"/><path class="cls-7" d="M168.16,142.23a1.59,1.59,0,1,1-1.59-1.59,1.59,1.59,0,0,1,1.59,1.59"/><path class="cls-7" d="M168.16,150.21a1.59,1.59,0,1,1-1.59-1.59,1.59,1.59,0,0,1,1.59,1.59"/><path class="cls-7" d="M168.16,157.28a1.59,1.59,0,1,1-1.59-1.59,1.6,1.6,0,0,1,1.59,1.59"/><path class="cls-7" d="M168.16,164.35a1.59,1.59,0,1,1-1.59-1.59,1.59,1.59,0,0,1,1.59,1.59"/><path class="cls-7" d="M168.16,171.42a1.59,1.59,0,1,1-1.59-1.59,1.59,1.59,0,0,1,1.59,1.59"/><path class="cls-7" d="M168.16,178.49a1.59,1.59,0,1,1-1.59-1.59,1.59,1.59,0,0,1,1.59,1.59"/><path class="cls-7" d="M168.16,185.56a1.59,1.59,0,1,1-1.59-1.59,1.59,1.59,0,0,1,1.59,1.59"/><path class="cls-7" d="M168.16,192.63a1.59,1.59,0,1,1-1.59-1.58,1.59,1.59,0,0,1,1.59,1.58"/><path class="cls-7" d="M168.16,199.71a1.59,1.59,0,1,1-1.59-1.59,1.6,1.6,0,0,1,1.59,1.59"/><path class="cls-7" d="M168.16,206.78a1.59,1.59,0,1,1-1.59-1.59,1.6,1.6,0,0,1,1.59,1.59"/><path class="cls-7" d="M168.16,213.85a1.59,1.59,0,1,1-1.59-1.59,1.59,1.59,0,0,1,1.59,1.59"/><path class="cls-7" d="M168.16,220.92a1.59,1.59,0,1,1-1.59-1.59,1.59,1.59,0,0,1,1.59,1.59"/><path class="cls-7" d="M168.16,228a1.59,1.59,0,1,1-1.59-1.59,1.59,1.59,0,0,1,1.59,1.59"/><path class="cls-7" d="M175.2,142.23a1.59,1.59,0,1,1-1.59-1.59,1.59,1.59,0,0,1,1.59,1.59"/><path class="cls-7" d="M175.2,150.21a1.59,1.59,0,1,1-1.59-1.59,1.59,1.59,0,0,1,1.59,1.59"/><path class="cls-7" d="M175.2,157.28a1.59,1.59,0,1,1-1.59-1.59,1.59,1.59,0,0,1,1.59,1.59"/><path class="cls-7" d="M175.2,164.35a1.59,1.59,0,1,1-1.59-1.59,1.59,1.59,0,0,1,1.59,1.59"/><path class="cls-7" d="M175.2,171.42a1.59,1.59,0,1,1-1.59-1.59,1.59,1.59,0,0,1,1.59,1.59"/><path class="cls-7" d="M175.2,178.49a1.59,1.59,0,1,1-1.59-1.59,1.59,1.59,0,0,1,1.59,1.59"/><path class="cls-7" d="M175.2,185.56a1.59,1.59,0,1,1-1.59-1.59,1.59,1.59,0,0,1,1.59,1.59"/><path class="cls-7" d="M175.2,192.63a1.59,1.59,0,1,1-1.59-1.58,1.59,1.59,0,0,1,1.59,1.58"/><path class="cls-7" d="M175.2,199.71a1.59,1.59,0,1,1-1.59-1.59,1.59,1.59,0,0,1,1.59,1.59"/><path class="cls-7" d="M175.2,206.78a1.59,1.59,0,1,1-1.59-1.59,1.59,1.59,0,0,1,1.59,1.59"/><path class="cls-7" d="M175.2,213.85a1.59,1.59,0,1,1-1.59-1.59,1.59,1.59,0,0,1,1.59,1.59"/><path class="cls-7" d="M175.2,220.92a1.59,1.59,0,1,1-1.59-1.59,1.59,1.59,0,0,1,1.59,1.59"/><path class="cls-7" d="M175.2,228a1.59,1.59,0,1,1-1.59-1.59A1.59,1.59,0,0,1,175.2,228"/><path class="cls-7" d="M182.24,142.23a1.59,1.59,0,1,1-1.58-1.59,1.59,1.59,0,0,1,1.58,1.59"/><path class="cls-7" d="M182.24,150.21a1.59,1.59,0,1,1-1.58-1.59,1.58,1.58,0,0,1,1.58,1.59"/><path class="cls-7" d="M182.24,157.28a1.59,1.59,0,1,1-1.58-1.59,1.59,1.59,0,0,1,1.58,1.59"/><path class="cls-7" d="M182.24,164.35a1.59,1.59,0,1,1-1.58-1.59,1.59,1.59,0,0,1,1.58,1.59"/><path class="cls-7" d="M182.24,171.42a1.59,1.59,0,1,1-1.58-1.59,1.59,1.59,0,0,1,1.58,1.59"/><path class="cls-7" d="M182.24,178.49a1.59,1.59,0,1,1-1.58-1.59,1.59,1.59,0,0,1,1.58,1.59"/><path class="cls-7" d="M182.24,185.56a1.59,1.59,0,1,1-1.58-1.59,1.59,1.59,0,0,1,1.58,1.59"/><path class="cls-7" d="M182.24,192.63a1.59,1.59,0,1,1-1.58-1.58,1.59,1.59,0,0,1,1.58,1.58"/><path class="cls-7" d="M182.24,199.71a1.59,1.59,0,1,1-1.58-1.59,1.59,1.59,0,0,1,1.58,1.59"/><path class="cls-7" d="M182.24,206.78a1.59,1.59,0,1,1-1.58-1.59,1.59,1.59,0,0,1,1.58,1.59"/><path class="cls-7" d="M182.24,213.85a1.59,1.59,0,1,1-1.58-1.59,1.59,1.59,0,0,1,1.58,1.59"/><path class="cls-7" d="M182.24,220.92a1.59,1.59,0,1,1-1.58-1.59,1.59,1.59,0,0,1,1.58,1.59"/><path class="cls-7" d="M182.24,228a1.59,1.59,0,1,1-1.58-1.59,1.59,1.59,0,0,1,1.58,1.59"/><path class="cls-7" d="M189.29,142.23a1.59,1.59,0,1,1-1.59-1.59,1.59,1.59,0,0,1,1.59,1.59"/><path class="cls-7" d="M189.29,150.21a1.59,1.59,0,1,1-1.59-1.59,1.59,1.59,0,0,1,1.59,1.59"/><path class="cls-7" d="M189.29,157.28a1.59,1.59,0,1,1-1.59-1.59,1.59,1.59,0,0,1,1.59,1.59"/><path class="cls-7" d="M189.29,164.35a1.59,1.59,0,1,1-1.59-1.59,1.59,1.59,0,0,1,1.59,1.59"/><path class="cls-7" d="M189.29,171.42a1.59,1.59,0,1,1-1.59-1.59,1.59,1.59,0,0,1,1.59,1.59"/><path class="cls-7" d="M189.29,178.49a1.59,1.59,0,1,1-1.59-1.59,1.59,1.59,0,0,1,1.59,1.59"/><path class="cls-7" d="M189.29,185.56A1.59,1.59,0,1,1,187.7,184a1.59,1.59,0,0,1,1.59,1.59"/><path class="cls-7" d="M189.29,192.63a1.59,1.59,0,1,1-1.59-1.58,1.59,1.59,0,0,1,1.59,1.58"/><path class="cls-7" d="M189.29,199.71a1.59,1.59,0,1,1-1.59-1.59,1.59,1.59,0,0,1,1.59,1.59"/><path class="cls-7" d="M189.29,206.78a1.59,1.59,0,1,1-1.59-1.59,1.59,1.59,0,0,1,1.59,1.59"/><path class="cls-7" d="M189.29,213.85a1.59,1.59,0,1,1-1.59-1.59,1.59,1.59,0,0,1,1.59,1.59"/><path class="cls-7" d="M189.29,220.92a1.59,1.59,0,1,1-1.59-1.59,1.59,1.59,0,0,1,1.59,1.59"/><path class="cls-7" d="M189.29,228a1.59,1.59,0,1,1-1.59-1.59,1.59,1.59,0,0,1,1.59,1.59"/><path class="cls-7" d="M196.33,142.23a1.59,1.59,0,1,1-1.58-1.59,1.59,1.59,0,0,1,1.58,1.59"/><path class="cls-7" d="M196.33,150.21a1.59,1.59,0,1,1-1.58-1.59,1.58,1.58,0,0,1,1.58,1.59"/><path class="cls-7" d="M196.33,157.28a1.59,1.59,0,1,1-1.58-1.59,1.59,1.59,0,0,1,1.58,1.59"/><path class="cls-7" d="M196.33,164.35a1.59,1.59,0,1,1-1.58-1.59,1.59,1.59,0,0,1,1.58,1.59"/><path class="cls-7" d="M196.33,171.42a1.59,1.59,0,1,1-1.58-1.59,1.59,1.59,0,0,1,1.58,1.59"/><path class="cls-7" d="M196.33,178.49a1.59,1.59,0,1,1-1.58-1.59,1.59,1.59,0,0,1,1.58,1.59"/><path class="cls-7" d="M196.33,185.56a1.59,1.59,0,1,1-1.58-1.59,1.59,1.59,0,0,1,1.58,1.59"/><path class="cls-7" d="M196.33,192.63a1.59,1.59,0,1,1-1.58-1.58,1.59,1.59,0,0,1,1.58,1.58"/><path class="cls-7" d="M196.33,199.71a1.59,1.59,0,1,1-1.58-1.59,1.59,1.59,0,0,1,1.58,1.59"/><path class="cls-7" d="M196.33,206.78a1.59,1.59,0,1,1-1.58-1.59,1.59,1.59,0,0,1,1.58,1.59"/><path class="cls-7" d="M196.33,213.85a1.59,1.59,0,1,1-1.58-1.59,1.59,1.59,0,0,1,1.58,1.59"/><path class="cls-7" d="M196.33,220.92a1.59,1.59,0,1,1-1.58-1.59,1.59,1.59,0,0,1,1.58,1.59"/><path class="cls-7" d="M196.33,228a1.59,1.59,0,1,1-1.58-1.59,1.59,1.59,0,0,1,1.58,1.59"/><path class="cls-7" d="M203.38,142.23a1.59,1.59,0,1,1-1.59-1.59,1.59,1.59,0,0,1,1.59,1.59"/><path class="cls-7" d="M203.38,150.21a1.59,1.59,0,1,1-1.59-1.59,1.59,1.59,0,0,1,1.59,1.59"/><path class="cls-7" d="M203.38,157.28a1.59,1.59,0,1,1-1.59-1.59,1.59,1.59,0,0,1,1.59,1.59"/><path class="cls-7" d="M203.38,164.35a1.59,1.59,0,1,1-1.59-1.59,1.59,1.59,0,0,1,1.59,1.59"/><path class="cls-7" d="M203.38,171.42a1.59,1.59,0,1,1-1.59-1.59,1.59,1.59,0,0,1,1.59,1.59"/><path class="cls-7" d="M203.38,178.49a1.59,1.59,0,1,1-1.59-1.59,1.59,1.59,0,0,1,1.59,1.59"/><path class="cls-7" d="M203.38,185.56a1.59,1.59,0,1,1-1.59-1.59,1.59,1.59,0,0,1,1.59,1.59"/><path class="cls-7" d="M203.38,192.63a1.59,1.59,0,1,1-1.59-1.58,1.59,1.59,0,0,1,1.59,1.58"/><path class="cls-7" d="M203.38,199.71a1.59,1.59,0,1,1-1.59-1.59,1.59,1.59,0,0,1,1.59,1.59"/><path class="cls-7" d="M203.38,206.78a1.59,1.59,0,1,1-1.59-1.59,1.59,1.59,0,0,1,1.59,1.59"/><path class="cls-7" d="M203.38,213.85a1.59,1.59,0,1,1-1.59-1.59,1.59,1.59,0,0,1,1.59,1.59"/><path class="cls-7" d="M203.38,220.92a1.59,1.59,0,1,1-1.59-1.59,1.59,1.59,0,0,1,1.59,1.59"/><path class="cls-7" d="M203.38,228a1.59,1.59,0,1,1-1.59-1.59,1.59,1.59,0,0,1,1.59,1.59"/><path class="cls-7" d="M210.42,142.23a1.59,1.59,0,1,1-1.59-1.59,1.59,1.59,0,0,1,1.59,1.59"/><path class="cls-7" d="M210.42,150.21a1.59,1.59,0,1,1-1.59-1.59,1.59,1.59,0,0,1,1.59,1.59"/><path class="cls-7" d="M210.42,157.28a1.59,1.59,0,1,1-1.59-1.59,1.59,1.59,0,0,1,1.59,1.59"/><path class="cls-7" d="M210.42,164.35a1.59,1.59,0,1,1-1.59-1.59,1.59,1.59,0,0,1,1.59,1.59"/><path class="cls-7" d="M210.42,171.42a1.59,1.59,0,1,1-1.59-1.59,1.59,1.59,0,0,1,1.59,1.59"/><path class="cls-7" d="M210.42,178.49a1.59,1.59,0,1,1-1.59-1.59,1.59,1.59,0,0,1,1.59,1.59"/><path class="cls-7" d="M210.42,185.56a1.59,1.59,0,1,1-1.59-1.59,1.59,1.59,0,0,1,1.59,1.59"/><path class="cls-7" d="M210.42,192.63a1.59,1.59,0,1,1-1.59-1.58,1.59,1.59,0,0,1,1.59,1.58"/><path class="cls-7" d="M210.42,199.71a1.59,1.59,0,1,1-1.59-1.59,1.59,1.59,0,0,1,1.59,1.59"/><path class="cls-7" d="M210.42,206.78a1.59,1.59,0,1,1-1.59-1.59,1.59,1.59,0,0,1,1.59,1.59"/><path class="cls-7" d="M210.42,213.85a1.59,1.59,0,1,1-1.59-1.59,1.59,1.59,0,0,1,1.59,1.59"/><path class="cls-7" d="M210.42,220.92a1.59,1.59,0,1,1-1.59-1.59,1.59,1.59,0,0,1,1.59,1.59"/><path class="cls-7" d="M210.42,228a1.59,1.59,0,1,1-1.59-1.59,1.59,1.59,0,0,1,1.59,1.59"/><path class="cls-7" d="M217.47,142.23a1.59,1.59,0,1,1-1.59-1.59,1.59,1.59,0,0,1,1.59,1.59"/><path class="cls-7" d="M217.47,150.21a1.59,1.59,0,1,1-1.59-1.59,1.59,1.59,0,0,1,1.59,1.59"/><path class="cls-7" d="M217.47,157.28a1.59,1.59,0,1,1-1.59-1.59,1.59,1.59,0,0,1,1.59,1.59"/><path class="cls-7" d="M217.47,164.35a1.59,1.59,0,1,1-1.59-1.59,1.59,1.59,0,0,1,1.59,1.59"/><path class="cls-7" d="M217.47,171.42a1.59,1.59,0,1,1-1.59-1.59,1.59,1.59,0,0,1,1.59,1.59"/><path class="cls-7" d="M217.47,178.49a1.59,1.59,0,1,1-1.59-1.59,1.59,1.59,0,0,1,1.59,1.59"/><path class="cls-7" d="M217.47,185.56a1.59,1.59,0,1,1-1.59-1.59,1.59,1.59,0,0,1,1.59,1.59"/><path class="cls-7" d="M217.47,192.63a1.59,1.59,0,1,1-1.59-1.58,1.59,1.59,0,0,1,1.59,1.58"/><path class="cls-7" d="M217.47,199.71a1.59,1.59,0,1,1-1.59-1.59,1.59,1.59,0,0,1,1.59,1.59"/><path class="cls-7" d="M217.47,206.78a1.59,1.59,0,1,1-1.59-1.59,1.59,1.59,0,0,1,1.59,1.59"/><path class="cls-7" d="M217.47,213.85a1.59,1.59,0,1,1-1.59-1.59,1.59,1.59,0,0,1,1.59,1.59"/><path class="cls-7" d="M217.47,220.92a1.59,1.59,0,1,1-1.59-1.59,1.59,1.59,0,0,1,1.59,1.59"/><path class="cls-7" d="M217.47,228a1.59,1.59,0,1,1-1.59-1.59,1.59,1.59,0,0,1,1.59,1.59"/><path class="cls-7" d="M224.51,142.23a1.59,1.59,0,1,1-1.59-1.59,1.59,1.59,0,0,1,1.59,1.59"/><path class="cls-7" d="M224.51,150.21a1.59,1.59,0,1,1-1.59-1.59,1.59,1.59,0,0,1,1.59,1.59"/><path class="cls-7" d="M224.51,157.28a1.59,1.59,0,1,1-1.59-1.59,1.59,1.59,0,0,1,1.59,1.59"/><path class="cls-7" d="M224.51,164.35a1.59,1.59,0,1,1-1.59-1.59,1.59,1.59,0,0,1,1.59,1.59"/><path class="cls-7" d="M224.51,171.42a1.59,1.59,0,1,1-1.59-1.59,1.59,1.59,0,0,1,1.59,1.59"/><path class="cls-7" d="M224.51,178.49a1.59,1.59,0,1,1-1.59-1.59,1.59,1.59,0,0,1,1.59,1.59"/><path class="cls-7" d="M224.51,185.56a1.59,1.59,0,1,1-1.59-1.59,1.59,1.59,0,0,1,1.59,1.59"/><path class="cls-7" d="M224.51,192.63a1.59,1.59,0,1,1-1.59-1.58,1.59,1.59,0,0,1,1.59,1.58"/><path class="cls-7" d="M224.51,199.71a1.59,1.59,0,1,1-1.59-1.59,1.59,1.59,0,0,1,1.59,1.59"/><path class="cls-7" d="M224.51,206.78a1.59,1.59,0,1,1-1.59-1.59,1.59,1.59,0,0,1,1.59,1.59"/><path class="cls-7" d="M224.51,213.85a1.59,1.59,0,1,1-1.59-1.59,1.59,1.59,0,0,1,1.59,1.59"/><path class="cls-7" d="M224.51,220.92a1.59,1.59,0,1,1-1.59-1.59,1.59,1.59,0,0,1,1.59,1.59"/><path class="cls-7" d="M224.51,228a1.59,1.59,0,1,1-1.59-1.59,1.59,1.59,0,0,1,1.59,1.59"/><path class="cls-7" d="M231.56,142.23a1.59,1.59,0,1,1-1.59-1.59,1.59,1.59,0,0,1,1.59,1.59"/><path class="cls-7" d="M231.56,150.21a1.59,1.59,0,1,1-1.59-1.59,1.59,1.59,0,0,1,1.59,1.59"/><path class="cls-7" d="M231.56,157.28a1.59,1.59,0,1,1-1.59-1.59,1.59,1.59,0,0,1,1.59,1.59"/><path class="cls-7" d="M231.56,164.35a1.59,1.59,0,1,1-1.59-1.59,1.59,1.59,0,0,1,1.59,1.59"/><path class="cls-7" d="M231.56,171.42a1.59,1.59,0,1,1-1.59-1.59,1.59,1.59,0,0,1,1.59,1.59"/><path class="cls-7" d="M231.56,178.49A1.59,1.59,0,1,1,230,176.9a1.59,1.59,0,0,1,1.59,1.59"/><path class="cls-7" d="M231.56,185.56A1.59,1.59,0,1,1,230,184a1.59,1.59,0,0,1,1.59,1.59"/><path class="cls-7" d="M231.56,192.63a1.59,1.59,0,1,1-1.59-1.58,1.59,1.59,0,0,1,1.59,1.58"/><path class="cls-7" d="M231.56,199.71a1.59,1.59,0,1,1-1.59-1.59,1.59,1.59,0,0,1,1.59,1.59"/><path class="cls-7" d="M231.56,206.78a1.59,1.59,0,1,1-1.59-1.59,1.59,1.59,0,0,1,1.59,1.59"/><path class="cls-7" d="M231.56,213.85a1.59,1.59,0,1,1-1.59-1.59,1.59,1.59,0,0,1,1.59,1.59"/><path class="cls-7" d="M231.56,220.92a1.59,1.59,0,1,1-1.59-1.59,1.59,1.59,0,0,1,1.59,1.59"/><path class="cls-7" d="M231.56,228A1.59,1.59,0,1,1,230,226.4a1.59,1.59,0,0,1,1.59,1.59"/><path class="cls-7" d="M238.6,142.23a1.59,1.59,0,1,1-1.59-1.59,1.59,1.59,0,0,1,1.59,1.59"/><path class="cls-7" d="M238.6,150.21a1.59,1.59,0,1,1-1.59-1.59,1.59,1.59,0,0,1,1.59,1.59"/><path class="cls-7" d="M238.6,157.28a1.59,1.59,0,1,1-1.59-1.59,1.59,1.59,0,0,1,1.59,1.59"/><path class="cls-7" d="M238.6,164.35a1.59,1.59,0,1,1-1.59-1.59,1.59,1.59,0,0,1,1.59,1.59"/><path class="cls-7" d="M238.6,171.42a1.59,1.59,0,1,1-1.59-1.59,1.59,1.59,0,0,1,1.59,1.59"/><path class="cls-7" d="M238.6,178.49A1.59,1.59,0,1,1,237,176.9a1.59,1.59,0,0,1,1.59,1.59"/><path class="cls-7" d="M238.6,185.56A1.59,1.59,0,1,1,237,184a1.59,1.59,0,0,1,1.59,1.59"/><path class="cls-7" d="M238.6,192.63a1.59,1.59,0,1,1-1.59-1.58,1.59,1.59,0,0,1,1.59,1.58"/><path class="cls-7" d="M238.6,199.71a1.59,1.59,0,1,1-1.59-1.59,1.59,1.59,0,0,1,1.59,1.59"/><path class="cls-7" d="M238.6,206.78a1.59,1.59,0,1,1-1.59-1.59,1.59,1.59,0,0,1,1.59,1.59"/><path class="cls-7" d="M238.6,213.85a1.59,1.59,0,1,1-1.59-1.59,1.59,1.59,0,0,1,1.59,1.59"/><path class="cls-7" d="M238.6,220.92a1.59,1.59,0,1,1-1.59-1.59,1.59,1.59,0,0,1,1.59,1.59"/><path class="cls-7" d="M238.6,228A1.59,1.59,0,1,1,237,226.4,1.59,1.59,0,0,1,238.6,228"/><path class="cls-7" d="M245.65,142.23a1.59,1.59,0,1,1-1.59-1.59,1.59,1.59,0,0,1,1.59,1.59"/><path class="cls-7" d="M245.65,150.21a1.59,1.59,0,1,1-1.59-1.59,1.59,1.59,0,0,1,1.59,1.59"/><path class="cls-7" d="M245.65,157.28a1.59,1.59,0,1,1-1.59-1.59,1.59,1.59,0,0,1,1.59,1.59"/><path class="cls-7" d="M245.65,164.35a1.59,1.59,0,1,1-1.59-1.59,1.59,1.59,0,0,1,1.59,1.59"/><path class="cls-7" d="M245.65,171.42a1.59,1.59,0,1,1-1.59-1.59,1.59,1.59,0,0,1,1.59,1.59"/><path class="cls-7" d="M245.65,178.49a1.59,1.59,0,1,1-1.59-1.59,1.59,1.59,0,0,1,1.59,1.59"/><path class="cls-7" d="M245.65,185.56a1.59,1.59,0,1,1-1.59-1.59,1.59,1.59,0,0,1,1.59,1.59"/><path class="cls-7" d="M245.65,192.63a1.59,1.59,0,1,1-1.59-1.58,1.59,1.59,0,0,1,1.59,1.58"/><path class="cls-7" d="M245.65,199.71a1.59,1.59,0,1,1-1.59-1.59,1.59,1.59,0,0,1,1.59,1.59"/><path class="cls-7" d="M245.65,206.78a1.59,1.59,0,1,1-1.59-1.59,1.59,1.59,0,0,1,1.59,1.59"/><path class="cls-7" d="M245.65,213.85a1.59,1.59,0,1,1-1.59-1.59,1.59,1.59,0,0,1,1.59,1.59"/><path class="cls-7" d="M245.65,220.92a1.59,1.59,0,1,1-1.59-1.59,1.59,1.59,0,0,1,1.59,1.59"/><path class="cls-7" d="M245.65,228a1.59,1.59,0,1,1-1.59-1.59,1.59,1.59,0,0,1,1.59,1.59"/><path class="cls-7" d="M252.69,142.23a1.59,1.59,0,1,1-1.59-1.59,1.59,1.59,0,0,1,1.59,1.59"/><path class="cls-7" d="M252.69,150.21a1.59,1.59,0,1,1-1.59-1.59,1.59,1.59,0,0,1,1.59,1.59"/><path class="cls-7" d="M252.69,157.28a1.59,1.59,0,1,1-1.59-1.59,1.59,1.59,0,0,1,1.59,1.59"/><path class="cls-7" d="M252.69,164.35a1.59,1.59,0,1,1-1.59-1.59,1.59,1.59,0,0,1,1.59,1.59"/><path class="cls-7" d="M252.69,171.42a1.59,1.59,0,1,1-1.59-1.59,1.59,1.59,0,0,1,1.59,1.59"/><path class="cls-7" d="M252.69,178.49a1.59,1.59,0,1,1-1.59-1.59,1.59,1.59,0,0,1,1.59,1.59"/><path class="cls-7" d="M252.69,185.56A1.59,1.59,0,1,1,251.1,184a1.59,1.59,0,0,1,1.59,1.59"/><path class="cls-7" d="M252.69,192.63a1.59,1.59,0,1,1-1.59-1.58,1.59,1.59,0,0,1,1.59,1.58"/><path class="cls-7" d="M252.69,199.71a1.59,1.59,0,1,1-1.59-1.59,1.59,1.59,0,0,1,1.59,1.59"/><path class="cls-7" d="M252.69,206.78a1.59,1.59,0,1,1-1.59-1.59,1.59,1.59,0,0,1,1.59,1.59"/><path class="cls-7" d="M252.69,213.85a1.59,1.59,0,1,1-1.59-1.59,1.59,1.59,0,0,1,1.59,1.59"/><path class="cls-7" d="M252.69,220.92a1.59,1.59,0,1,1-1.59-1.59,1.59,1.59,0,0,1,1.59,1.59"/><path class="cls-7" d="M252.69,228a1.59,1.59,0,1,1-1.59-1.59,1.59,1.59,0,0,1,1.59,1.59"/><path class="cls-7" d="M259.74,142.23a1.59,1.59,0,1,1-1.59-1.59,1.59,1.59,0,0,1,1.59,1.59"/><path class="cls-7" d="M259.74,150.21a1.59,1.59,0,1,1-1.59-1.59,1.59,1.59,0,0,1,1.59,1.59"/><path class="cls-7" d="M259.74,157.28a1.59,1.59,0,1,1-1.59-1.59,1.59,1.59,0,0,1,1.59,1.59"/><path class="cls-7" d="M259.74,164.35a1.59,1.59,0,1,1-1.59-1.59,1.59,1.59,0,0,1,1.59,1.59"/><path class="cls-7" d="M259.74,171.42a1.59,1.59,0,1,1-1.59-1.59,1.59,1.59,0,0,1,1.59,1.59"/><path class="cls-7" d="M259.74,178.49a1.59,1.59,0,1,1-1.59-1.59,1.59,1.59,0,0,1,1.59,1.59"/><path class="cls-7" d="M259.74,185.56a1.59,1.59,0,1,1-1.59-1.59,1.59,1.59,0,0,1,1.59,1.59"/><path class="cls-7" d="M259.74,192.63a1.59,1.59,0,1,1-1.59-1.58,1.59,1.59,0,0,1,1.59,1.58"/><path class="cls-7" d="M259.74,199.71a1.59,1.59,0,1,1-1.59-1.59,1.59,1.59,0,0,1,1.59,1.59"/><path class="cls-7" d="M259.74,206.78a1.59,1.59,0,1,1-1.59-1.59,1.59,1.59,0,0,1,1.59,1.59"/><path class="cls-7" d="M259.74,213.85a1.59,1.59,0,1,1-1.59-1.59,1.59,1.59,0,0,1,1.59,1.59"/><path class="cls-7" d="M259.74,220.92a1.59,1.59,0,1,1-1.59-1.59,1.59,1.59,0,0,1,1.59,1.59"/><path class="cls-7" d="M259.74,228a1.59,1.59,0,1,1-1.59-1.59,1.59,1.59,0,0,1,1.59,1.59"/><path class="cls-7" d="M266.78,142.23a1.59,1.59,0,1,1-1.59-1.59,1.59,1.59,0,0,1,1.59,1.59"/><path class="cls-7" d="M266.78,150.21a1.59,1.59,0,1,1-1.59-1.59,1.59,1.59,0,0,1,1.59,1.59"/><path class="cls-7" d="M266.78,157.28a1.59,1.59,0,1,1-1.59-1.59,1.59,1.59,0,0,1,1.59,1.59"/><path class="cls-7" d="M266.78,164.35a1.59,1.59,0,1,1-1.59-1.59,1.59,1.59,0,0,1,1.59,1.59"/><path class="cls-7" d="M266.78,171.42a1.59,1.59,0,1,1-1.59-1.59,1.59,1.59,0,0,1,1.59,1.59"/><path class="cls-7" d="M266.78,178.49a1.59,1.59,0,1,1-1.59-1.59,1.59,1.59,0,0,1,1.59,1.59"/><path class="cls-7" d="M266.78,185.56a1.59,1.59,0,1,1-1.59-1.59,1.59,1.59,0,0,1,1.59,1.59"/><path class="cls-7" d="M266.78,192.63a1.59,1.59,0,1,1-1.59-1.58,1.59,1.59,0,0,1,1.59,1.58"/><path class="cls-7" d="M266.78,199.71a1.59,1.59,0,1,1-1.59-1.59,1.59,1.59,0,0,1,1.59,1.59"/><path class="cls-7" d="M266.78,206.78a1.59,1.59,0,1,1-1.59-1.59,1.59,1.59,0,0,1,1.59,1.59"/><path class="cls-7" d="M266.78,213.85a1.59,1.59,0,1,1-1.59-1.59,1.59,1.59,0,0,1,1.59,1.59"/><path class="cls-7" d="M266.78,220.92a1.59,1.59,0,1,1-1.59-1.59,1.59,1.59,0,0,1,1.59,1.59"/><path class="cls-7" d="M266.78,228a1.59,1.59,0,1,1-1.59-1.59,1.59,1.59,0,0,1,1.59,1.59"/><path class="cls-7" d="M273.83,142.23a1.59,1.59,0,1,1-1.59-1.59,1.59,1.59,0,0,1,1.59,1.59"/><path class="cls-7" d="M273.83,150.21a1.59,1.59,0,1,1-1.59-1.59,1.59,1.59,0,0,1,1.59,1.59"/><path class="cls-7" d="M273.83,157.28a1.59,1.59,0,1,1-1.59-1.59,1.59,1.59,0,0,1,1.59,1.59"/><path class="cls-7" d="M273.83,164.35a1.59,1.59,0,1,1-1.59-1.59,1.59,1.59,0,0,1,1.59,1.59"/><path class="cls-7" d="M273.83,171.42a1.59,1.59,0,1,1-1.59-1.59,1.59,1.59,0,0,1,1.59,1.59"/><path class="cls-7" d="M273.83,178.49a1.59,1.59,0,1,1-1.59-1.59,1.59,1.59,0,0,1,1.59,1.59"/><path class="cls-7" d="M273.83,185.56a1.59,1.59,0,1,1-1.59-1.59,1.59,1.59,0,0,1,1.59,1.59"/><path class="cls-7" d="M273.83,192.63a1.59,1.59,0,1,1-1.59-1.58,1.59,1.59,0,0,1,1.59,1.58"/><path class="cls-7" d="M273.83,199.71a1.59,1.59,0,1,1-1.59-1.59,1.59,1.59,0,0,1,1.59,1.59"/><path class="cls-7" d="M273.83,206.78a1.59,1.59,0,1,1-1.59-1.59,1.59,1.59,0,0,1,1.59,1.59"/><path class="cls-7" d="M273.83,213.85a1.59,1.59,0,1,1-1.59-1.59,1.59,1.59,0,0,1,1.59,1.59"/><path class="cls-7" d="M273.83,220.92a1.59,1.59,0,1,1-1.59-1.59,1.59,1.59,0,0,1,1.59,1.59"/><path class="cls-7" d="M273.83,228a1.59,1.59,0,1,1-1.59-1.59,1.59,1.59,0,0,1,1.59,1.59"/><path class="cls-7" d="M280.87,142.23a1.59,1.59,0,1,1-1.59-1.59,1.59,1.59,0,0,1,1.59,1.59"/><path class="cls-7" d="M280.87,150.21a1.59,1.59,0,1,1-1.59-1.59,1.59,1.59,0,0,1,1.59,1.59"/><path class="cls-7" d="M280.87,157.28a1.59,1.59,0,1,1-1.59-1.59,1.59,1.59,0,0,1,1.59,1.59"/><path class="cls-7" d="M280.87,164.35a1.59,1.59,0,1,1-1.59-1.59,1.59,1.59,0,0,1,1.59,1.59"/><path class="cls-7" d="M280.87,171.42a1.59,1.59,0,1,1-1.59-1.59,1.59,1.59,0,0,1,1.59,1.59"/><path class="cls-7" d="M280.87,178.49a1.59,1.59,0,1,1-1.59-1.59,1.59,1.59,0,0,1,1.59,1.59"/><path class="cls-7" d="M280.87,185.56a1.59,1.59,0,1,1-1.59-1.59,1.59,1.59,0,0,1,1.59,1.59"/><path class="cls-7" d="M280.87,192.63a1.59,1.59,0,1,1-1.59-1.58,1.59,1.59,0,0,1,1.59,1.58"/><path class="cls-7" d="M280.87,199.71a1.59,1.59,0,1,1-1.59-1.59,1.59,1.59,0,0,1,1.59,1.59"/><path class="cls-7" d="M280.87,206.78a1.59,1.59,0,1,1-1.59-1.59,1.59,1.59,0,0,1,1.59,1.59"/><path class="cls-7" d="M280.87,213.85a1.59,1.59,0,1,1-1.59-1.59,1.59,1.59,0,0,1,1.59,1.59"/><path class="cls-7" d="M280.87,220.92a1.59,1.59,0,1,1-1.59-1.59,1.59,1.59,0,0,1,1.59,1.59"/><path class="cls-7" d="M280.87,228a1.59,1.59,0,1,1-1.59-1.59,1.59,1.59,0,0,1,1.59,1.59"/><path class="cls-7" d="M287.92,142.23a1.59,1.59,0,1,1-1.59-1.59,1.59,1.59,0,0,1,1.59,1.59"/><path class="cls-7" d="M287.92,150.21a1.59,1.59,0,1,1-1.59-1.59,1.59,1.59,0,0,1,1.59,1.59"/><path class="cls-7" d="M287.92,157.28a1.59,1.59,0,1,1-1.59-1.59,1.59,1.59,0,0,1,1.59,1.59"/><path class="cls-7" d="M287.92,164.35a1.59,1.59,0,1,1-1.59-1.59,1.59,1.59,0,0,1,1.59,1.59"/><path class="cls-7" d="M287.92,171.42a1.59,1.59,0,1,1-1.59-1.59,1.59,1.59,0,0,1,1.59,1.59"/><path class="cls-7" d="M287.92,178.49a1.59,1.59,0,1,1-1.59-1.59,1.59,1.59,0,0,1,1.59,1.59"/><path class="cls-7" d="M287.92,185.56a1.59,1.59,0,1,1-1.59-1.59,1.59,1.59,0,0,1,1.59,1.59"/><path class="cls-7" d="M287.92,192.63a1.59,1.59,0,1,1-1.59-1.58,1.59,1.59,0,0,1,1.59,1.58"/><path class="cls-7" d="M287.92,199.71a1.59,1.59,0,1,1-1.59-1.59,1.59,1.59,0,0,1,1.59,1.59"/><path class="cls-7" d="M287.92,206.78a1.59,1.59,0,1,1-1.59-1.59,1.59,1.59,0,0,1,1.59,1.59"/><path class="cls-7" d="M287.92,213.85a1.59,1.59,0,1,1-1.59-1.59,1.59,1.59,0,0,1,1.59,1.59"/><path class="cls-7" d="M287.92,220.92a1.59,1.59,0,1,1-1.59-1.59,1.59,1.59,0,0,1,1.59,1.59"/><path class="cls-7" d="M287.92,228a1.59,1.59,0,1,1-1.59-1.59,1.59,1.59,0,0,1,1.59,1.59"/><path class="cls-7" d="M295,142.23a1.59,1.59,0,1,1-1.59-1.59,1.59,1.59,0,0,1,1.59,1.59"/><path class="cls-7" d="M295,150.21a1.59,1.59,0,1,1-1.59-1.59,1.59,1.59,0,0,1,1.59,1.59"/><path class="cls-7" d="M295,157.28a1.59,1.59,0,1,1-1.59-1.59,1.59,1.59,0,0,1,1.59,1.59"/><path class="cls-7" d="M295,164.35a1.59,1.59,0,1,1-1.59-1.59,1.59,1.59,0,0,1,1.59,1.59"/><path class="cls-7" d="M295,171.42a1.59,1.59,0,1,1-1.59-1.59,1.59,1.59,0,0,1,1.59,1.59"/><path class="cls-7" d="M295,178.49a1.59,1.59,0,1,1-1.59-1.59,1.59,1.59,0,0,1,1.59,1.59"/><path class="cls-7" d="M295,185.56a1.59,1.59,0,1,1-1.59-1.59,1.59,1.59,0,0,1,1.59,1.59"/><path class="cls-7" d="M295,192.63a1.59,1.59,0,1,1-1.59-1.58,1.59,1.59,0,0,1,1.59,1.58"/><path class="cls-7" d="M295,199.71a1.59,1.59,0,1,1-1.59-1.59,1.59,1.59,0,0,1,1.59,1.59"/><path class="cls-7" d="M295,206.78a1.59,1.59,0,1,1-1.59-1.59,1.59,1.59,0,0,1,1.59,1.59"/><path class="cls-7" d="M295,213.85a1.59,1.59,0,1,1-1.59-1.59,1.59,1.59,0,0,1,1.59,1.59"/><path class="cls-7" d="M295,220.92a1.59,1.59,0,1,1-1.59-1.59,1.59,1.59,0,0,1,1.59,1.59"/><path class="cls-7" d="M295,228a1.59,1.59,0,1,1-1.59-1.59A1.59,1.59,0,0,1,295,228"/><path class="cls-7" d="M302,142.23a1.59,1.59,0,1,1-1.59-1.59,1.59,1.59,0,0,1,1.59,1.59"/><path class="cls-7" d="M302,150.21a1.59,1.59,0,1,1-1.59-1.59,1.59,1.59,0,0,1,1.59,1.59"/><path class="cls-7" d="M302,157.28a1.59,1.59,0,1,1-1.59-1.59,1.59,1.59,0,0,1,1.59,1.59"/><path class="cls-7" d="M302,164.35a1.59,1.59,0,1,1-1.59-1.59,1.59,1.59,0,0,1,1.59,1.59"/><path class="cls-7" d="M302,171.42a1.59,1.59,0,1,1-1.59-1.59,1.59,1.59,0,0,1,1.59,1.59"/><path class="cls-7" d="M302,178.49a1.59,1.59,0,1,1-1.59-1.59,1.59,1.59,0,0,1,1.59,1.59"/><path class="cls-7" d="M302,185.56a1.59,1.59,0,1,1-1.59-1.59,1.59,1.59,0,0,1,1.59,1.59"/><path class="cls-7" d="M302,192.63a1.59,1.59,0,1,1-1.59-1.58,1.59,1.59,0,0,1,1.59,1.58"/><path class="cls-7" d="M302,199.71a1.59,1.59,0,1,1-1.59-1.59,1.59,1.59,0,0,1,1.59,1.59"/><path class="cls-7" d="M302,206.78a1.59,1.59,0,1,1-1.59-1.59,1.59,1.59,0,0,1,1.59,1.59"/><path class="cls-7" d="M302,213.85a1.59,1.59,0,1,1-1.59-1.59,1.59,1.59,0,0,1,1.59,1.59"/><path class="cls-7" d="M302,220.92a1.59,1.59,0,1,1-1.59-1.59,1.59,1.59,0,0,1,1.59,1.59"/><path class="cls-7" d="M302,228a1.59,1.59,0,1,1-1.59-1.59A1.59,1.59,0,0,1,302,228"/><path class="cls-7" d="M309.05,142.23a1.59,1.59,0,1,1-1.59-1.59,1.59,1.59,0,0,1,1.59,1.59"/><path class="cls-7" d="M309.05,150.21a1.59,1.59,0,1,1-1.59-1.59,1.59,1.59,0,0,1,1.59,1.59"/><path class="cls-7" d="M309.05,157.28a1.59,1.59,0,1,1-1.59-1.59,1.59,1.59,0,0,1,1.59,1.59"/><path class="cls-7" d="M309.05,164.35a1.59,1.59,0,1,1-1.59-1.59,1.59,1.59,0,0,1,1.59,1.59"/><path class="cls-7" d="M309.05,171.42a1.59,1.59,0,1,1-1.59-1.59,1.59,1.59,0,0,1,1.59,1.59"/><path class="cls-7" d="M309.05,178.49a1.59,1.59,0,1,1-1.59-1.59,1.59,1.59,0,0,1,1.59,1.59"/><path class="cls-7" d="M309.05,185.56a1.59,1.59,0,1,1-1.59-1.59,1.59,1.59,0,0,1,1.59,1.59"/><path class="cls-7" d="M309.05,192.63a1.59,1.59,0,1,1-1.59-1.58,1.59,1.59,0,0,1,1.59,1.58"/><path class="cls-7" d="M309.05,199.71a1.59,1.59,0,1,1-1.59-1.59,1.59,1.59,0,0,1,1.59,1.59"/><path class="cls-7" d="M309.05,206.78a1.59,1.59,0,1,1-1.59-1.59,1.59,1.59,0,0,1,1.59,1.59"/><path class="cls-7" d="M309.05,213.85a1.59,1.59,0,1,1-1.59-1.59,1.59,1.59,0,0,1,1.59,1.59"/><path class="cls-7" d="M309.05,220.92a1.59,1.59,0,1,1-1.59-1.59,1.59,1.59,0,0,1,1.59,1.59"/><path class="cls-7" d="M309.05,228a1.59,1.59,0,1,1-1.59-1.59,1.59,1.59,0,0,1,1.59,1.59"/><path class="cls-7" d="M316.1,142.23a1.59,1.59,0,1,1-1.59-1.59,1.59,1.59,0,0,1,1.59,1.59"/><path class="cls-7" d="M316.1,150.21a1.59,1.59,0,1,1-1.59-1.59,1.59,1.59,0,0,1,1.59,1.59"/><path class="cls-7" d="M316.1,157.28a1.59,1.59,0,1,1-1.59-1.59,1.6,1.6,0,0,1,1.59,1.59"/><path class="cls-7" d="M316.1,164.35a1.59,1.59,0,1,1-1.59-1.59,1.59,1.59,0,0,1,1.59,1.59"/><path class="cls-7" d="M316.1,171.42a1.59,1.59,0,1,1-1.59-1.59,1.59,1.59,0,0,1,1.59,1.59"/><path class="cls-7" d="M316.1,178.49a1.59,1.59,0,1,1-1.59-1.59,1.59,1.59,0,0,1,1.59,1.59"/><path class="cls-7" d="M316.1,185.56a1.59,1.59,0,1,1-1.59-1.59,1.59,1.59,0,0,1,1.59,1.59"/><path class="cls-7" d="M316.1,192.63a1.59,1.59,0,1,1-1.59-1.58,1.59,1.59,0,0,1,1.59,1.58"/><path class="cls-7" d="M316.1,199.71a1.59,1.59,0,1,1-1.59-1.59,1.6,1.6,0,0,1,1.59,1.59"/><path class="cls-7" d="M316.1,206.78a1.59,1.59,0,1,1-1.59-1.59,1.6,1.6,0,0,1,1.59,1.59"/><path class="cls-7" d="M316.1,213.85a1.59,1.59,0,1,1-1.59-1.59,1.59,1.59,0,0,1,1.59,1.59"/><path class="cls-7" d="M316.1,220.92a1.59,1.59,0,1,1-1.59-1.59,1.59,1.59,0,0,1,1.59,1.59"/><path class="cls-7" d="M316.1,228a1.59,1.59,0,1,1-1.59-1.59A1.59,1.59,0,0,1,316.1,228"/><path class="cls-7" d="M323.14,142.23a1.59,1.59,0,1,1-1.59-1.59,1.59,1.59,0,0,1,1.59,1.59"/><path class="cls-7" d="M323.14,150.21a1.59,1.59,0,1,1-1.59-1.59,1.59,1.59,0,0,1,1.59,1.59"/><path class="cls-7" d="M323.14,157.28a1.59,1.59,0,1,1-1.59-1.59,1.59,1.59,0,0,1,1.59,1.59"/><path class="cls-7" d="M323.14,164.35a1.59,1.59,0,1,1-1.59-1.59,1.59,1.59,0,0,1,1.59,1.59"/><path class="cls-7" d="M323.14,171.42a1.59,1.59,0,1,1-1.59-1.59,1.59,1.59,0,0,1,1.59,1.59"/><path class="cls-7" d="M323.14,178.49a1.59,1.59,0,1,1-1.59-1.59,1.59,1.59,0,0,1,1.59,1.59"/><path class="cls-7" d="M323.14,185.56a1.59,1.59,0,1,1-1.59-1.59,1.59,1.59,0,0,1,1.59,1.59"/><path class="cls-7" d="M323.14,192.63a1.59,1.59,0,1,1-1.59-1.58,1.59,1.59,0,0,1,1.59,1.58"/><path class="cls-7" d="M323.14,199.71a1.59,1.59,0,1,1-1.59-1.59,1.59,1.59,0,0,1,1.59,1.59"/><path class="cls-7" d="M323.14,206.78a1.59,1.59,0,1,1-1.59-1.59,1.59,1.59,0,0,1,1.59,1.59"/><path class="cls-7" d="M323.14,213.85a1.59,1.59,0,1,1-1.59-1.59,1.59,1.59,0,0,1,1.59,1.59"/><path class="cls-7" d="M323.14,220.92a1.59,1.59,0,1,1-1.59-1.59,1.59,1.59,0,0,1,1.59,1.59"/><path class="cls-7" d="M323.14,228a1.59,1.59,0,1,1-1.59-1.59,1.59,1.59,0,0,1,1.59,1.59"/><path class="cls-7" d="M330.19,142.23a1.59,1.59,0,1,1-1.59-1.59,1.59,1.59,0,0,1,1.59,1.59"/><path class="cls-7" d="M330.19,150.21a1.59,1.59,0,1,1-1.59-1.59,1.59,1.59,0,0,1,1.59,1.59"/><path class="cls-7" d="M330.19,157.28a1.59,1.59,0,1,1-1.59-1.59,1.6,1.6,0,0,1,1.59,1.59"/><path class="cls-7" d="M330.19,164.35a1.59,1.59,0,1,1-1.59-1.59,1.59,1.59,0,0,1,1.59,1.59"/><path class="cls-7" d="M330.19,171.42a1.59,1.59,0,1,1-1.59-1.59,1.59,1.59,0,0,1,1.59,1.59"/><path class="cls-7" d="M330.19,178.49a1.59,1.59,0,1,1-1.59-1.59,1.59,1.59,0,0,1,1.59,1.59"/><path class="cls-7" d="M330.19,185.56A1.59,1.59,0,1,1,328.6,184a1.59,1.59,0,0,1,1.59,1.59"/><path class="cls-7" d="M330.19,192.63a1.59,1.59,0,1,1-1.59-1.58,1.59,1.59,0,0,1,1.59,1.58"/><path class="cls-7" d="M330.19,199.71a1.59,1.59,0,1,1-1.59-1.59,1.6,1.6,0,0,1,1.59,1.59"/><path class="cls-7" d="M330.19,206.78a1.59,1.59,0,1,1-1.59-1.59,1.6,1.6,0,0,1,1.59,1.59"/><path class="cls-7" d="M330.19,213.85a1.59,1.59,0,1,1-1.59-1.59,1.59,1.59,0,0,1,1.59,1.59"/><path class="cls-7" d="M330.19,220.92a1.59,1.59,0,1,1-1.59-1.59,1.59,1.59,0,0,1,1.59,1.59"/><path class="cls-7" d="M330.19,228a1.59,1.59,0,1,1-1.59-1.59,1.59,1.59,0,0,1,1.59,1.59"/><path class="cls-7" d="M337.23,142.23a1.59,1.59,0,1,1-1.59-1.59,1.59,1.59,0,0,1,1.59,1.59"/><path class="cls-7" d="M337.23,150.21a1.59,1.59,0,1,1-1.59-1.59,1.59,1.59,0,0,1,1.59,1.59"/><path class="cls-7" d="M337.23,157.28a1.59,1.59,0,1,1-1.59-1.59,1.59,1.59,0,0,1,1.59,1.59"/><path class="cls-7" d="M337.23,164.35a1.59,1.59,0,1,1-1.59-1.59,1.59,1.59,0,0,1,1.59,1.59"/><path class="cls-7" d="M337.23,171.42a1.59,1.59,0,1,1-1.59-1.59,1.59,1.59,0,0,1,1.59,1.59"/><path class="cls-7" d="M337.23,178.49a1.59,1.59,0,1,1-1.59-1.59,1.59,1.59,0,0,1,1.59,1.59"/><path class="cls-7" d="M337.23,185.56a1.59,1.59,0,1,1-1.59-1.59,1.59,1.59,0,0,1,1.59,1.59"/><path class="cls-7" d="M337.23,192.63a1.59,1.59,0,1,1-1.59-1.58,1.59,1.59,0,0,1,1.59,1.58"/><path class="cls-7" d="M337.23,199.71a1.59,1.59,0,1,1-1.59-1.59,1.59,1.59,0,0,1,1.59,1.59"/><path class="cls-7" d="M337.23,206.78a1.59,1.59,0,1,1-1.59-1.59,1.59,1.59,0,0,1,1.59,1.59"/><path class="cls-7" d="M337.23,213.85a1.59,1.59,0,1,1-1.59-1.59,1.59,1.59,0,0,1,1.59,1.59"/><path class="cls-7" d="M337.23,220.92a1.59,1.59,0,1,1-1.59-1.59,1.59,1.59,0,0,1,1.59,1.59"/><path class="cls-7" d="M337.23,228a1.59,1.59,0,1,1-1.59-1.59,1.59,1.59,0,0,1,1.59,1.59"/><path class="cls-7" d="M344.28,142.23a1.59,1.59,0,1,1-1.59-1.59,1.59,1.59,0,0,1,1.59,1.59"/><path class="cls-7" d="M344.28,150.21a1.59,1.59,0,1,1-1.59-1.59,1.59,1.59,0,0,1,1.59,1.59"/><path class="cls-7" d="M344.28,157.28a1.59,1.59,0,1,1-1.59-1.59,1.6,1.6,0,0,1,1.59,1.59"/><path class="cls-7" d="M344.28,164.35a1.59,1.59,0,1,1-1.59-1.59,1.59,1.59,0,0,1,1.59,1.59"/><path class="cls-7" d="M344.28,171.42a1.59,1.59,0,1,1-1.59-1.59,1.59,1.59,0,0,1,1.59,1.59"/><path class="cls-7" d="M344.28,178.49a1.59,1.59,0,1,1-1.59-1.59,1.59,1.59,0,0,1,1.59,1.59"/><path class="cls-7" d="M344.28,185.56a1.59,1.59,0,1,1-1.59-1.59,1.59,1.59,0,0,1,1.59,1.59"/><path class="cls-7" d="M344.28,192.63a1.59,1.59,0,1,1-1.59-1.58,1.59,1.59,0,0,1,1.59,1.58"/><path class="cls-7" d="M344.28,199.71a1.59,1.59,0,1,1-1.59-1.59,1.6,1.6,0,0,1,1.59,1.59"/><path class="cls-7" d="M344.28,206.78a1.59,1.59,0,1,1-1.59-1.59,1.6,1.6,0,0,1,1.59,1.59"/><path class="cls-7" d="M344.28,213.85a1.59,1.59,0,1,1-1.59-1.59,1.59,1.59,0,0,1,1.59,1.59"/><path class="cls-7" d="M344.28,220.92a1.59,1.59,0,1,1-1.59-1.59,1.59,1.59,0,0,1,1.59,1.59"/><path class="cls-7" d="M344.28,228a1.59,1.59,0,1,1-1.59-1.59,1.59,1.59,0,0,1,1.59,1.59"/><path class="cls-7" d="M351.32,142.23a1.59,1.59,0,1,1-1.59-1.59,1.59,1.59,0,0,1,1.59,1.59"/><path class="cls-7" d="M351.32,150.21a1.59,1.59,0,1,1-1.59-1.59,1.59,1.59,0,0,1,1.59,1.59"/><path class="cls-7" d="M351.32,157.28a1.59,1.59,0,1,1-1.59-1.59,1.59,1.59,0,0,1,1.59,1.59"/><path class="cls-7" d="M351.32,164.35a1.59,1.59,0,1,1-1.59-1.59,1.59,1.59,0,0,1,1.59,1.59"/><path class="cls-7" d="M351.32,171.42a1.59,1.59,0,1,1-1.59-1.59,1.59,1.59,0,0,1,1.59,1.59"/><path class="cls-7" d="M351.32,178.49a1.59,1.59,0,1,1-1.59-1.59,1.59,1.59,0,0,1,1.59,1.59"/><path class="cls-7" d="M351.32,185.56a1.59,1.59,0,1,1-1.59-1.59,1.59,1.59,0,0,1,1.59,1.59"/><path class="cls-7" d="M351.32,192.63a1.59,1.59,0,1,1-1.59-1.58,1.59,1.59,0,0,1,1.59,1.58"/><path class="cls-7" d="M351.32,199.71a1.59,1.59,0,1,1-1.59-1.59,1.59,1.59,0,0,1,1.59,1.59"/><path class="cls-7" d="M351.32,206.78a1.59,1.59,0,1,1-1.59-1.59,1.59,1.59,0,0,1,1.59,1.59"/><path class="cls-7" d="M351.32,213.85a1.59,1.59,0,1,1-1.59-1.59,1.59,1.59,0,0,1,1.59,1.59"/><path class="cls-7" d="M351.32,220.92a1.59,1.59,0,1,1-1.59-1.59,1.59,1.59,0,0,1,1.59,1.59"/><path class="cls-7" d="M351.32,228a1.59,1.59,0,1,1-1.59-1.59,1.59,1.59,0,0,1,1.59,1.59"/><path class="cls-7" d="M358.37,142.23a1.59,1.59,0,1,1-1.59-1.59,1.59,1.59,0,0,1,1.59,1.59"/><path class="cls-7" d="M358.37,150.21a1.59,1.59,0,1,1-1.59-1.59,1.59,1.59,0,0,1,1.59,1.59"/><path class="cls-7" d="M358.37,157.28a1.59,1.59,0,1,1-1.59-1.59,1.6,1.6,0,0,1,1.59,1.59"/><path class="cls-7" d="M358.37,164.35a1.59,1.59,0,1,1-1.59-1.59,1.59,1.59,0,0,1,1.59,1.59"/><path class="cls-7" d="M358.37,171.42a1.59,1.59,0,1,1-1.59-1.59,1.59,1.59,0,0,1,1.59,1.59"/><path class="cls-7" d="M358.37,178.49a1.59,1.59,0,1,1-1.59-1.59,1.59,1.59,0,0,1,1.59,1.59"/><path class="cls-7" d="M358.37,185.56a1.59,1.59,0,1,1-1.59-1.59,1.59,1.59,0,0,1,1.59,1.59"/><path class="cls-7" d="M358.37,192.63a1.59,1.59,0,1,1-1.59-1.58,1.59,1.59,0,0,1,1.59,1.58"/><path class="cls-7" d="M358.37,199.71a1.59,1.59,0,1,1-1.59-1.59,1.6,1.6,0,0,1,1.59,1.59"/><path class="cls-7" d="M358.37,206.78a1.59,1.59,0,1,1-1.59-1.59,1.6,1.6,0,0,1,1.59,1.59"/><path class="cls-7" d="M358.37,213.85a1.59,1.59,0,1,1-1.59-1.59,1.59,1.59,0,0,1,1.59,1.59"/><path class="cls-7" d="M358.37,220.92a1.59,1.59,0,1,1-1.59-1.59,1.59,1.59,0,0,1,1.59,1.59"/><path class="cls-7" d="M358.37,228a1.59,1.59,0,1,1-1.59-1.59,1.59,1.59,0,0,1,1.59,1.59"/><path class="cls-7" d="M365.41,142.23a1.59,1.59,0,1,1-1.59-1.59,1.59,1.59,0,0,1,1.59,1.59"/><path class="cls-7" d="M365.41,150.21a1.59,1.59,0,1,1-1.59-1.59,1.59,1.59,0,0,1,1.59,1.59"/><path class="cls-7" d="M365.41,157.28a1.59,1.59,0,1,1-1.59-1.59,1.59,1.59,0,0,1,1.59,1.59"/><path class="cls-7" d="M365.41,164.35a1.59,1.59,0,1,1-1.59-1.59,1.59,1.59,0,0,1,1.59,1.59"/><path class="cls-7" d="M365.41,171.42a1.59,1.59,0,1,1-1.59-1.59,1.59,1.59,0,0,1,1.59,1.59"/><path class="cls-7" d="M365.41,178.49a1.59,1.59,0,1,1-1.59-1.59,1.59,1.59,0,0,1,1.59,1.59"/><path class="cls-7" d="M365.41,185.56a1.59,1.59,0,1,1-1.59-1.59,1.59,1.59,0,0,1,1.59,1.59"/><path class="cls-7" d="M365.41,192.63a1.59,1.59,0,1,1-1.59-1.58,1.59,1.59,0,0,1,1.59,1.58"/><path class="cls-7" d="M365.41,199.71a1.59,1.59,0,1,1-1.59-1.59,1.59,1.59,0,0,1,1.59,1.59"/><path class="cls-7" d="M365.41,206.78a1.59,1.59,0,1,1-1.59-1.59,1.59,1.59,0,0,1,1.59,1.59"/><path class="cls-7" d="M365.41,213.85a1.59,1.59,0,1,1-1.59-1.59,1.59,1.59,0,0,1,1.59,1.59"/><path class="cls-7" d="M365.41,220.92a1.59,1.59,0,1,1-1.59-1.59,1.59,1.59,0,0,1,1.59,1.59"/><path class="cls-7" d="M365.41,228a1.59,1.59,0,1,1-1.59-1.59,1.59,1.59,0,0,1,1.59,1.59"/><path class="cls-7" d="M372.46,142.23a1.59,1.59,0,1,1-1.59-1.59,1.59,1.59,0,0,1,1.59,1.59"/><path class="cls-7" d="M372.46,150.21a1.59,1.59,0,1,1-1.59-1.59,1.59,1.59,0,0,1,1.59,1.59"/><path class="cls-7" d="M372.46,157.28a1.59,1.59,0,1,1-1.59-1.59,1.6,1.6,0,0,1,1.59,1.59"/><path class="cls-7" d="M372.46,164.35a1.59,1.59,0,1,1-1.59-1.59,1.59,1.59,0,0,1,1.59,1.59"/><path class="cls-7" d="M372.46,171.42a1.59,1.59,0,1,1-1.59-1.59,1.59,1.59,0,0,1,1.59,1.59"/><path class="cls-7" d="M372.46,178.49a1.59,1.59,0,1,1-1.59-1.59,1.59,1.59,0,0,1,1.59,1.59"/><path class="cls-7" d="M372.46,185.56a1.59,1.59,0,1,1-1.59-1.59,1.59,1.59,0,0,1,1.59,1.59"/><path class="cls-7" d="M372.46,192.63a1.59,1.59,0,1,1-1.59-1.58,1.59,1.59,0,0,1,1.59,1.58"/><path class="cls-7" d="M372.46,199.71a1.59,1.59,0,1,1-1.59-1.59,1.6,1.6,0,0,1,1.59,1.59"/><path class="cls-7" d="M372.46,206.78a1.59,1.59,0,1,1-1.59-1.59,1.6,1.6,0,0,1,1.59,1.59"/><path class="cls-7" d="M372.46,213.85a1.59,1.59,0,1,1-1.59-1.59,1.59,1.59,0,0,1,1.59,1.59"/><path class="cls-7" d="M372.46,220.92a1.59,1.59,0,1,1-1.59-1.59,1.59,1.59,0,0,1,1.59,1.59"/><path class="cls-7" d="M372.46,228a1.59,1.59,0,1,1-1.59-1.59,1.59,1.59,0,0,1,1.59,1.59"/><path class="cls-7" d="M379.5,142.23a1.59,1.59,0,1,1-1.59-1.59,1.59,1.59,0,0,1,1.59,1.59"/><path class="cls-7" d="M379.5,150.21a1.59,1.59,0,1,1-1.59-1.59,1.59,1.59,0,0,1,1.59,1.59"/><path class="cls-7" d="M379.5,157.28a1.59,1.59,0,1,1-1.59-1.59,1.59,1.59,0,0,1,1.59,1.59"/><path class="cls-7" d="M379.5,164.35a1.59,1.59,0,1,1-1.59-1.59,1.59,1.59,0,0,1,1.59,1.59"/><path class="cls-7" d="M379.5,171.42a1.59,1.59,0,1,1-1.59-1.59,1.59,1.59,0,0,1,1.59,1.59"/><path class="cls-7" d="M379.5,178.49a1.59,1.59,0,1,1-1.59-1.59,1.59,1.59,0,0,1,1.59,1.59"/><path class="cls-7" d="M379.5,185.56a1.59,1.59,0,1,1-1.59-1.59,1.59,1.59,0,0,1,1.59,1.59"/><path class="cls-7" d="M379.5,192.63a1.59,1.59,0,1,1-1.59-1.58,1.59,1.59,0,0,1,1.59,1.58"/><path class="cls-7" d="M379.5,199.71a1.59,1.59,0,1,1-1.59-1.59,1.59,1.59,0,0,1,1.59,1.59"/><path class="cls-7" d="M379.5,206.78a1.59,1.59,0,1,1-1.59-1.59,1.59,1.59,0,0,1,1.59,1.59"/><path class="cls-7" d="M379.5,213.85a1.59,1.59,0,1,1-1.59-1.59,1.59,1.59,0,0,1,1.59,1.59"/><path class="cls-7" d="M379.5,220.92a1.59,1.59,0,1,1-1.59-1.59,1.59,1.59,0,0,1,1.59,1.59"/><path class="cls-7" d="M379.5,228a1.59,1.59,0,1,1-1.59-1.59A1.59,1.59,0,0,1,379.5,228"/><path class="cls-7" d="M386.55,142.23a1.59,1.59,0,1,1-1.59-1.59,1.59,1.59,0,0,1,1.59,1.59"/><path class="cls-7" d="M386.55,150.21a1.59,1.59,0,1,1-1.59-1.59,1.59,1.59,0,0,1,1.59,1.59"/><path class="cls-7" d="M386.55,157.28a1.59,1.59,0,1,1-1.59-1.59,1.6,1.6,0,0,1,1.59,1.59"/><path class="cls-7" d="M386.55,164.35a1.59,1.59,0,1,1-1.59-1.59,1.59,1.59,0,0,1,1.59,1.59"/><path class="cls-7" d="M386.55,171.42a1.59,1.59,0,1,1-1.59-1.59,1.59,1.59,0,0,1,1.59,1.59"/><path class="cls-7" d="M386.55,178.49A1.59,1.59,0,1,1,385,176.9a1.59,1.59,0,0,1,1.59,1.59"/><path class="cls-7" d="M386.55,185.56A1.59,1.59,0,1,1,385,184a1.59,1.59,0,0,1,1.59,1.59"/><path class="cls-7" d="M386.55,192.63a1.59,1.59,0,1,1-1.59-1.58,1.59,1.59,0,0,1,1.59,1.58"/><path class="cls-7" d="M386.55,199.71a1.59,1.59,0,1,1-1.59-1.59,1.6,1.6,0,0,1,1.59,1.59"/><path class="cls-7" d="M386.55,206.78a1.59,1.59,0,1,1-1.59-1.59,1.6,1.6,0,0,1,1.59,1.59"/><path class="cls-7" d="M386.55,213.85a1.59,1.59,0,1,1-1.59-1.59,1.59,1.59,0,0,1,1.59,1.59"/><path class="cls-7" d="M386.55,220.92a1.59,1.59,0,1,1-1.59-1.59,1.59,1.59,0,0,1,1.59,1.59"/><path class="cls-7" d="M386.55,228A1.59,1.59,0,1,1,385,226.4a1.59,1.59,0,0,1,1.59,1.59"/><path class="cls-7" d="M393.59,142.23a1.59,1.59,0,1,1-1.59-1.59,1.59,1.59,0,0,1,1.59,1.59"/><path class="cls-7" d="M393.59,150.21a1.59,1.59,0,1,1-1.59-1.59,1.59,1.59,0,0,1,1.59,1.59"/><path class="cls-7" d="M393.59,157.28a1.59,1.59,0,1,1-1.59-1.59,1.59,1.59,0,0,1,1.59,1.59"/><path class="cls-7" d="M393.59,164.35a1.59,1.59,0,1,1-1.59-1.59,1.59,1.59,0,0,1,1.59,1.59"/><path class="cls-7" d="M393.59,171.42a1.59,1.59,0,1,1-1.59-1.59,1.59,1.59,0,0,1,1.59,1.59"/><path class="cls-7" d="M393.59,178.49A1.59,1.59,0,1,1,392,176.9a1.59,1.59,0,0,1,1.59,1.59"/><path class="cls-7" d="M393.59,185.56A1.59,1.59,0,1,1,392,184a1.59,1.59,0,0,1,1.59,1.59"/><path class="cls-7" d="M393.59,192.63a1.59,1.59,0,1,1-1.59-1.58,1.59,1.59,0,0,1,1.59,1.58"/><path class="cls-7" d="M393.59,199.71a1.59,1.59,0,1,1-1.59-1.59,1.59,1.59,0,0,1,1.59,1.59"/><path class="cls-7" d="M393.59,206.78a1.59,1.59,0,1,1-1.59-1.59,1.59,1.59,0,0,1,1.59,1.59"/><path class="cls-7" d="M393.59,213.85a1.59,1.59,0,1,1-1.59-1.59,1.59,1.59,0,0,1,1.59,1.59"/><path class="cls-7" d="M393.59,220.92a1.59,1.59,0,1,1-1.59-1.59,1.59,1.59,0,0,1,1.59,1.59"/><path class="cls-7" d="M393.59,228A1.59,1.59,0,1,1,392,226.4a1.59,1.59,0,0,1,1.59,1.59"/><path class="cls-7" d="M400.64,142.23a1.59,1.59,0,1,1-1.59-1.59,1.59,1.59,0,0,1,1.59,1.59"/><path class="cls-7" d="M400.64,150.21a1.59,1.59,0,1,1-1.59-1.59,1.59,1.59,0,0,1,1.59,1.59"/><path class="cls-7" d="M400.64,157.28a1.59,1.59,0,1,1-1.59-1.59,1.6,1.6,0,0,1,1.59,1.59"/><path class="cls-7" d="M400.64,164.35a1.59,1.59,0,1,1-1.59-1.59,1.59,1.59,0,0,1,1.59,1.59"/><path class="cls-7" d="M400.64,171.42a1.59,1.59,0,1,1-1.59-1.59,1.59,1.59,0,0,1,1.59,1.59"/><path class="cls-7" d="M400.64,178.49a1.59,1.59,0,1,1-1.59-1.59,1.59,1.59,0,0,1,1.59,1.59"/><path class="cls-7" d="M400.64,185.56a1.59,1.59,0,1,1-1.59-1.59,1.59,1.59,0,0,1,1.59,1.59"/><path class="cls-7" d="M400.64,192.63a1.59,1.59,0,1,1-1.59-1.58,1.59,1.59,0,0,1,1.59,1.58"/><path class="cls-7" d="M400.64,199.71a1.59,1.59,0,1,1-1.59-1.59,1.6,1.6,0,0,1,1.59,1.59"/><path class="cls-7" d="M400.64,206.78a1.59,1.59,0,1,1-1.59-1.59,1.6,1.6,0,0,1,1.59,1.59"/><path class="cls-7" d="M400.64,213.85a1.59,1.59,0,1,1-1.59-1.59,1.59,1.59,0,0,1,1.59,1.59"/><path class="cls-7" d="M400.64,220.92a1.59,1.59,0,1,1-1.59-1.59,1.59,1.59,0,0,1,1.59,1.59"/><path class="cls-7" d="M400.64,228a1.59,1.59,0,1,1-1.59-1.59,1.59,1.59,0,0,1,1.59,1.59"/><path class="cls-7" d="M407.68,142.23a1.59,1.59,0,1,1-1.59-1.59,1.59,1.59,0,0,1,1.59,1.59"/><path class="cls-7" d="M407.68,150.21a1.59,1.59,0,1,1-1.59-1.59,1.59,1.59,0,0,1,1.59,1.59"/><path class="cls-7" d="M407.68,157.28a1.59,1.59,0,1,1-1.59-1.59,1.59,1.59,0,0,1,1.59,1.59"/><path class="cls-7" d="M407.68,164.35a1.59,1.59,0,1,1-1.59-1.59,1.59,1.59,0,0,1,1.59,1.59"/><path class="cls-7" d="M407.68,171.42a1.59,1.59,0,1,1-1.59-1.59,1.59,1.59,0,0,1,1.59,1.59"/><path class="cls-7" d="M407.68,178.49a1.59,1.59,0,1,1-1.59-1.59,1.59,1.59,0,0,1,1.59,1.59"/><path class="cls-7" d="M407.68,185.56a1.59,1.59,0,1,1-1.59-1.59,1.59,1.59,0,0,1,1.59,1.59"/><path class="cls-7" d="M407.68,192.63a1.59,1.59,0,1,1-1.59-1.58,1.59,1.59,0,0,1,1.59,1.58"/><path class="cls-7" d="M407.68,199.71a1.59,1.59,0,1,1-1.59-1.59,1.59,1.59,0,0,1,1.59,1.59"/><path class="cls-7" d="M407.68,206.78a1.59,1.59,0,1,1-1.59-1.59,1.59,1.59,0,0,1,1.59,1.59"/><path class="cls-7" d="M407.68,213.85a1.59,1.59,0,1,1-1.59-1.59,1.59,1.59,0,0,1,1.59,1.59"/><path class="cls-7" d="M407.68,220.92a1.59,1.59,0,1,1-1.59-1.59,1.59,1.59,0,0,1,1.59,1.59"/><path class="cls-7" d="M407.68,228a1.59,1.59,0,1,1-1.59-1.59,1.59,1.59,0,0,1,1.59,1.59"/></g><rect class="cls-1" x="103.32" y="199.86" width="274.75" height="36.18"/><rect class="cls-4" x="122.6" y="212.15" width="10.39" height="10.39"/><rect class="cls-4" x="143.77" y="212.15" width="10.39" height="10.39"/><rect class="cls-4" x="164.94" y="212.15" width="10.39" height="10.39"/><line class="cls-8" x1="604.52" y1="401.43" x2="50.53" y2="401.43"/><rect class="cls-9" x="410.52" y="139.92" width="123.16" height="261.51"/><line class="cls-8" x1="410.52" y1="183.5" x2="533.69" y2="183.5"/><line class="cls-8" x1="410.52" y1="227.09" x2="533.69" y2="227.09"/><line class="cls-8" x1="410.52" y1="270.67" x2="533.69" y2="270.67"/><line class="cls-8" x1="410.52" y1="314.26" x2="533.69" y2="314.26"/><line class="cls-8" x1="410.52" y1="357.84" x2="533.69" y2="357.84"/><rect class="cls-4" x="410.52" y="357.84" width="123.16" height="43.59"/><line class="cls-10" x1="426.51" y1="161.73" x2="478.21" y2="161.73"/><rect class="cls-4" x="503.75" y="154.95" width="13.38" height="13.38"/><line class="cls-10" x1="426.51" y1="204.94" x2="478.21" y2="204.94"/><rect class="cls-4" x="503.75" y="198.16" width="13.38" height="13.38"/><line class="cls-10" x1="426.51" y1="248.92" x2="478.21" y2="248.92"/><rect class="cls-4" x="503.75" y="242.13" width="13.38" height="13.38"/><line class="cls-10" x1="426.51" y1="292.13" x2="478.21" y2="292.13"/><rect class="cls-4" x="503.75" y="285.35" width="13.38" height="13.38"/><line class="cls-10" x1="426.51" y1="336.11" x2="478.21" y2="336.11"/><rect class="cls-4" x="503.75" y="329.32" width="13.38" height="13.38"/><line class="cls-11" x1="426.19" y1="379.83" x2="468.68" y2="379.83"/><rect class="cls-2" x="503.75" y="373.04" width="13.38" height="13.38"/><rect class="cls-2" x="481.17" y="373.04" width="13.38" height="13.38"/><rect class="cls-4" x="410.52" y="139.87" width="123.16" height="43.59"/><line class="cls-11" x1="426.19" y1="161.85" x2="468.68" y2="161.85"/><rect class="cls-2" x="503.75" y="155.07" width="13.38" height="13.38"/><rect class="cls-2" x="481.17" y="155.07" width="13.38" height="13.38"/><path class="cls-9" d="M348.39,106.76a26.2,26.2,0,0,0,.34-4.18A25.87,25.87,0,0,0,309.87,80.2,34.51,34.51,0,0,0,243.71,94c0,.51,0,1,0,1.5h-2.29A28.5,28.5,0,0,0,213,124h0a28.5,28.5,0,0,0,28.5,28.5h105.4a22.87,22.87,0,0,0,22.87-22.88h0A22.87,22.87,0,0,0,348.39,106.76Z"/><rect class="cls-9" x="244.46" y="280.4" width="184.96" height="114.55"/><rect class="cls-9" x="255.87" y="292.37" width="162.15" height="102.58"/><path class="cls-12" d="M224.23,386.17c3.92,9.47,14.43,15.26,28.82,15.26H420.83c14.39,0,24.9-5.79,28.82-15.26Z"/><path class="cls-4" d="M316.36,386.17h41.17a0,0,0,0,1,0,0v0a7.16,7.16,0,0,1-7.16,7.16H323.52a7.16,7.16,0,0,1-7.16-7.16v0A0,0,0,0,1,316.36,386.17Z"/><circle class="cls-9" cx="11.37" cy="327.46" r="9.59"/><circle class="cls-9" cx="11.69" cy="184.84" r="9.59"/><line class="cls-8" x1="54.15" y1="257.48" x2="16.09" y2="317.87"/><line class="cls-8" x1="17.28" y1="194.63" x2="53.2" y2="236.01"/><line class="cls-8" x1="19.67" y1="178.05" x2="103.56" y2="112.16"/><polyline class="cls-13" points="103.62 119.5 105.91 109.93 96.11 110.4"/><circle class="cls-14" cx="57.99" cy="247.46" r="24"/><path class="cls-2" d="M66.4,245.83V243a8.52,8.52,0,0,0-8.21-8.57,8.42,8.42,0,0,0-8.61,8.41v3H49a1.44,1.44,0,0,0-1.43,1.44v11.78A1.43,1.43,0,0,0,49,260.49H67a1.43,1.43,0,0,0,1.43-1.44V247.27A1.44,1.44,0,0,0,67,245.83Zm-13.7-3a5.29,5.29,0,1,1,10.58,0v3H52.7Z"/><line class="cls-8" x1="119.58" y1="51.34" x2="116.17" y2="68"/><line class="cls-8" x1="99.48" y1="149.54" x2="96.07" y2="166.2"/><line class="cls-8" x1="99.23" y1="50.79" x2="101.72" y2="67.61"/><line class="cls-8" x1="113.93" y1="149.94" x2="116.42" y2="166.76"/><line class="cls-8" x1="79.91" y1="57.22" x2="88.01" y2="72.18"/><line class="cls-8" x1="127.64" y1="145.37" x2="135.73" y2="160.32"/><line class="cls-8" x1="63.96" y1="69.88" x2="76.69" y2="81.16"/><line class="cls-8" x1="138.96" y1="136.38" x2="151.68" y2="147.67"/><line class="cls-8" x1="53.31" y1="87.23" x2="69.12" y2="93.48"/><line class="cls-8" x1="146.52" y1="124.07" x2="162.34" y2="130.32"/><line class="cls-8" x1="49.22" y1="107.17" x2="66.22" y2="107.64"/><line class="cls-8" x1="149.42" y1="109.91" x2="166.42" y2="110.38"/><line class="cls-8" x1="52.21" y1="127.31" x2="68.34" y2="121.93"/><line class="cls-8" x1="147.3" y1="95.61" x2="163.43" y2="90.24"/><line class="cls-8" x1="140.42" y1="82.9" x2="153.74" y2="72.33"/><line class="cls-8" x1="77.14" y1="158.72" x2="86.04" y2="144.23"/><line class="cls-8" x1="129.61" y1="73.32" x2="138.51" y2="58.83"/></g></g></svg>